<svg width="100%" height="100%" viewBox="0 0 534 499" fill="none" xmlns="http://www.w3.org/2000/svg">
<ellipse cx="279" cy="249.5" rx="225" ry="221.5" fill="url(#paint0_linear_3_202)"/>
<rect x="30.8181" y="44" width="122.182" height="10" rx="5" fill="#1B3667"/>
<rect x="30.8181" y="88" width="79.4182" height="10" rx="5" fill="#1B3667"/>
<rect x="35.1819" y="110" width="90.7636" height="10" rx="5" fill="#1B3667"/>
<rect x="106.745" y="66" width="24.4364" height="10" rx="5" fill="#1B3667"/>
<rect x="9" y="66" width="87.2727" height="10" rx="5" fill="#1B3667"/>
<path d="M46 199L175.897 271.5L303 199V336.497C303 347.025 294.845 355.76 284.33 356.29C230.575 359 168.447 359 168.447 359C168.447 359 109.633 359 64.3626 356.458C53.9759 355.875 46 347.203 46 336.8V199Z" fill="white"/>
<path d="M174.191 260.184L4.87975 166.444C2.78843 165.287 2.82519 162.267 4.94408 161.161L174.278 72.7242C175.147 72.2704 176.183 72.2697 177.052 72.7224L344.117 159.697C346.224 160.794 346.281 163.788 344.217 164.964L177.129 260.166C176.22 260.684 175.106 260.691 174.191 260.184Z" fill="white"/>
<rect x="8" y="162" width="2" height="124" fill="white"/>
<path d="M7.53905 261.563C8.32957 260.718 9.6709 260.718 10.4614 261.563L18 269.63V322C18 323.657 16.6569 325 15 325H3C1.34315 325 0 323.657 0 322V269.63L7.53905 261.563Z" fill="white"/>
<rect x="314" y="373" width="162" height="47" fill="white"/>
<rect width="127" height="4" rx="2" transform="matrix(-1 0 0 1 454 387)" fill="#D9D9D9"/>
<rect width="127" height="4" rx="2" transform="matrix(-1 0 0 1 454 398)" fill="#D9D9D9"/>
<rect x="314" y="309" width="162" height="48" fill="white"/>
<rect x="314" y="185" width="6" height="195" fill="white"/>
<rect x="314" y="177" width="162" height="8" fill="white"/>
<rect x="470" y="183" width="6" height="204" fill="white"/>
<rect x="329" y="325" width="127" height="4" rx="2" fill="#D9D9D9"/>
<rect x="329" y="336" width="79" height="4" rx="2" fill="#D9D9D9"/>
<defs>
<linearGradient id="paint0_linear_3_202" x1="398" y1="72.5" x2="129" y2="450" gradientUnits="userSpaceOnUse">
<stop stop-color="#725CE0"/>
<stop offset="1" stop-color="#84BCD2"/>
</linearGradient>
</defs>
</svg>
