<svg width="100vw" height="100vh" viewBox="0 0 533 519" fill="none" xmlns="http://www.w3.org/2000/svg">
<ellipse cx="263" cy="264.5" rx="225" ry="221.5" fill="url(#paint0_linear_3_226)"/>
<rect x="29.8181" y="50" width="122.182" height="10" rx="5" fill="#1B3667"/>
<rect x="29.8181" y="94" width="79.4182" height="10" rx="5" fill="#1B3667"/>
<rect x="34.1819" y="116" width="90.7636" height="10" rx="5" fill="#1B3667"/>
<rect x="105.745" y="72" width="24.4364" height="10" rx="5" fill="#1B3667"/>
<rect x="8" y="72" width="87.2727" height="10" rx="5" fill="#1B3667"/>
<ellipse cx="88.5" cy="225" rx="71.5" ry="72" fill="#1B3667"/>
<path d="M65 213.5V258.5H106.5V213.5H123L85.5 179L49 213.5H65Z" fill="white"/>
<ellipse rx="150.258" ry="163.633" transform="matrix(0.535338 0.844638 -0.801134 0.598484 353.469 256.845)" fill="#132441"/>
<ellipse rx="139.762" ry="152.203" transform="matrix(0.535338 0.844638 -0.801134 0.598484 354.173 256.813)" fill="#507EF5"/>
<path d="M401.73 324.706C357.876 357.467 303.932 347.68 279.846 309.678C255.76 271.675 266.616 213.48 310.47 180.719C354.325 147.958 408.268 157.745 432.354 195.747C456.44 233.749 445.585 291.944 401.73 324.706Z" stroke="white" stroke-width="53"/>
<ellipse rx="32.5031" ry="35.4331" transform="matrix(0.535338 0.844638 -0.801134 0.598484 355.294 252.342)" fill="white"/>
<path d="M180.614 96L174.116 103.601L349.702 253.704C351.801 255.498 354.957 255.251 356.751 253.152V253.152C358.545 251.053 358.299 247.897 356.2 246.103L180.614 96Z" fill="#FFB800"/>
<path d="M234.942 113.788L234.279 142.315L180.184 96.2058L180.862 67L234.942 113.788Z" fill="#FFB800"/>
<path d="M204.014 152.661L232 147.092L177.26 101.75L148.608 107.451L204.014 152.661Z" fill="#FFB800"/>
<path fill-rule="evenodd" clip-rule="evenodd" d="M134.741 403.875C161.458 403.875 183.116 382.217 183.116 355.5C183.116 328.783 161.458 307.125 134.741 307.125C108.024 307.125 86.3662 328.783 86.3662 355.5C86.3662 382.217 108.024 403.875 134.741 403.875ZM132.823 374.506L159.698 342.256L152.784 336.494L129.064 364.959L116.423 352.318L110.059 358.682L126.184 374.807L129.669 378.291L132.823 374.506Z" fill="white"/>
<defs>
<linearGradient id="paint0_linear_3_226" x1="414" y1="43" x2="87.0001" y2="495" gradientUnits="userSpaceOnUse">
<stop stop-color="#F14784"/>
<stop offset="1" stop-color="#EC8A6C"/>
</linearGradient>
</defs>
</svg>
