<svg width="100%" height="100%n" viewBox="0 0 552 537" fill="none" xmlns="http://www.w3.org/2000/svg">
<ellipse cx="288" cy="271.5" rx="225" ry="221.5" fill="url(#paint0_linear_401_9)"/>
<rect x="72.8181" y="185" width="122.182" height="10" rx="5" fill="#1B3667"/>
<rect x="72.8181" y="229" width="79.4182" height="10" rx="5" fill="#1B3667"/>
<rect x="77.1819" y="251" width="90.7636" height="10" rx="5" fill="#1B3667"/>
<rect x="148.745" y="207" width="24.4364" height="10" rx="5" fill="#1B3667"/>
<rect x="51" y="207" width="87.2727" height="10" rx="5" fill="#1B3667"/>
<path fill-rule="evenodd" clip-rule="evenodd" d="M371.196 38.2384C373.752 40.7803 374.378 44.7905 375.63 52.8111C378.012 68.0699 379.202 75.6993 384.07 78.2792C385.043 78.7948 386.087 79.1614 387.169 79.3668C392.581 80.3947 398.279 75.1829 409.674 64.7593C415.663 59.2804 418.658 56.5409 422.242 56.154C422.988 56.0735 423.74 56.0694 424.487 56.142C428.075 56.4907 431.099 59.1981 437.146 64.6128L449.893 76.0254C455.941 81.4402 458.965 84.1476 459.706 87.6753C459.861 88.4094 459.94 89.1574 459.942 89.9075C459.952 93.5123 457.559 96.7906 452.772 103.347C443.667 115.821 439.114 122.058 440.732 127.324C441.055 128.376 441.534 129.374 442.154 130.284C445.254 134.838 452.968 135.182 468.397 135.869C476.507 136.23 480.562 136.41 483.37 138.671C483.954 139.142 484.488 139.67 484.965 140.25C487.256 143.033 487.479 147.086 487.927 155.191L488.871 172.276C489.318 180.38 489.542 184.432 487.572 187.45C487.162 188.079 486.688 188.664 486.159 189.197C483.617 191.752 479.607 192.378 471.588 193.63C456.332 196.011 448.705 197.201 446.124 202.067C445.608 203.041 445.241 204.087 445.035 205.171C444.009 210.581 449.219 216.278 459.64 227.67C465.118 233.658 467.856 236.652 468.244 240.235C468.325 240.982 468.329 241.735 468.256 242.483C467.907 246.07 465.2 249.093 459.787 255.139L448.373 267.888C442.958 273.935 440.25 276.959 436.723 277.701C435.989 277.855 435.241 277.934 434.49 277.936C430.886 277.946 427.607 275.553 421.051 270.767L421.051 270.767C408.577 261.662 402.34 257.109 397.074 258.726C396.022 259.05 395.024 259.529 394.114 260.149C389.56 263.249 389.217 270.964 388.53 286.394C388.168 294.506 387.988 298.563 385.726 301.371C385.256 301.954 384.728 302.488 384.15 302.964C381.366 305.256 377.312 305.479 369.205 305.927L352.124 306.87C344.018 307.318 339.966 307.542 336.947 305.572C336.319 305.162 335.734 304.689 335.202 304.16C332.646 301.618 332.02 297.608 330.768 289.587C328.386 274.328 327.196 266.698 322.328 264.118C321.355 263.603 320.311 263.236 319.229 263.031C313.817 262.003 308.119 267.215 296.724 277.639L296.724 277.639C290.734 283.118 287.739 285.857 284.155 286.244C283.409 286.325 282.657 286.329 281.911 286.256C278.323 285.908 275.299 283.2 269.25 277.785L256.504 266.373C250.456 260.958 247.432 258.251 246.691 254.723C246.536 253.989 246.458 253.241 246.455 252.491C246.445 248.886 248.838 245.608 253.625 239.051C262.73 226.577 267.283 220.34 265.666 215.074C265.342 214.022 264.863 213.024 264.243 212.114C261.143 207.56 253.429 207.216 238.001 206.529C229.891 206.168 225.836 205.988 223.029 203.727C222.444 203.257 221.91 202.728 221.433 202.148C219.143 199.365 218.919 195.312 218.471 187.207L217.528 170.125C217.08 162.018 216.856 157.965 218.827 154.946C219.237 154.318 219.709 153.734 220.238 153.203C222.78 150.646 226.791 150.02 234.813 148.768C250.075 146.386 257.706 145.195 260.285 140.326C260.8 139.354 261.166 138.311 261.371 137.23C262.401 131.817 257.187 126.118 246.761 114.72C241.28 108.728 238.54 105.732 238.153 102.147C238.073 101.403 238.069 100.652 238.142 99.9068C238.49 96.3177 241.198 93.2929 246.614 87.2433L258.025 74.4987C263.44 68.4506 266.147 65.4266 269.675 64.6851C270.409 64.5308 271.157 64.452 271.907 64.4499C275.512 64.4397 278.791 66.8331 285.348 71.62C297.821 80.7248 304.057 85.2771 309.322 83.6609C310.376 83.3375 311.375 82.8574 312.286 82.2369C316.838 79.1367 317.182 71.4241 317.869 55.9991C318.23 47.8912 318.41 43.8372 320.67 41.0297C321.141 40.4446 321.671 39.9093 322.251 39.4321C325.034 37.1424 329.086 36.9187 337.19 36.4712L354.274 35.5277C362.38 35.0801 366.432 34.8563 369.451 36.8263C370.079 37.2363 370.664 37.7095 371.196 38.2384ZM356.186 225.279C386.053 223.63 408.928 198.08 407.279 168.213C405.63 138.345 380.08 115.47 350.213 117.119C320.345 118.769 297.47 144.318 299.119 174.186C300.769 204.053 326.318 226.928 356.186 225.279Z" fill="white"/>
<path fill-rule="evenodd" clip-rule="evenodd" d="M253.318 278.102L253.318 278.102C253.548 289.878 253.663 295.766 256.407 298.813C258.218 300.824 260.706 302.096 263.397 302.388C267.473 302.829 272.314 299.477 281.998 292.771L281.998 292.771L281.998 292.771C287.105 289.235 289.658 287.467 292.37 287.143C294.191 286.925 296.038 287.167 297.743 287.845C300.28 288.855 302.294 291.22 306.32 295.949L316.223 307.581C320.25 312.311 322.264 314.675 322.856 317.341C323.254 319.132 323.198 320.994 322.692 322.758C321.94 325.383 319.787 327.622 315.481 332.099C307.317 340.589 303.235 344.834 303.021 348.929C302.88 351.631 303.739 354.29 305.435 356.399C308.005 359.593 313.8 360.646 325.389 362.752C331.501 363.863 334.557 364.418 336.703 366.107C338.145 367.241 339.281 368.717 340.006 370.402C341.086 372.91 340.838 376.006 340.341 382.199L339.118 397.427C338.622 403.617 338.373 406.713 336.907 409.016C335.922 410.565 334.565 411.842 332.96 412.732C330.572 414.055 327.467 414.116 321.258 414.238L321.258 414.238C309.484 414.468 303.598 414.584 300.551 417.326C298.539 419.137 297.266 421.627 296.975 424.319C296.534 428.394 299.886 433.234 306.589 442.915C310.124 448.02 311.892 450.573 312.216 453.283C312.434 455.106 312.193 456.954 311.514 458.66C310.504 461.196 308.139 463.209 303.411 467.234L291.778 477.139L291.778 477.139C287.049 481.166 284.684 483.179 282.018 483.771C280.227 484.169 278.365 484.113 276.601 483.607C273.976 482.855 271.737 480.702 267.26 476.397C258.77 468.233 254.525 464.151 250.431 463.937C247.729 463.795 245.069 464.655 242.961 466.351C239.766 468.921 238.713 474.716 236.607 486.306C235.496 492.42 234.94 495.477 233.251 497.624C232.118 499.065 230.642 500.2 228.958 500.926C226.449 502.006 223.352 501.758 217.159 501.261L201.933 500.039C195.741 499.542 192.645 499.293 190.342 497.827C188.794 496.842 187.517 495.486 186.628 493.881C185.303 491.493 185.243 488.387 185.121 482.177C184.89 470.4 184.775 464.512 182.031 461.465C180.22 459.455 177.732 458.182 175.042 457.89C170.966 457.449 166.124 460.802 156.44 467.507C151.333 471.044 148.779 472.812 146.068 473.136C144.246 473.354 142.399 473.112 140.695 472.434C138.157 471.424 136.144 469.059 132.117 464.329L122.214 452.698C118.187 447.968 116.174 445.603 115.582 442.937C115.184 441.147 115.24 439.285 115.745 437.521C116.498 434.896 118.651 432.657 122.956 428.179L122.956 428.179C131.121 419.689 135.203 415.444 135.417 411.35C135.558 408.648 134.699 405.988 133.002 403.88C130.432 400.685 124.638 399.632 113.049 397.527C106.938 396.416 103.882 395.861 101.735 394.172C100.293 393.038 99.1579 391.561 98.4324 389.876C97.3524 387.368 97.6008 384.272 98.0978 378.081L99.3199 362.855C99.8169 356.662 100.065 353.565 101.532 351.261C102.517 349.714 103.873 348.438 105.477 347.548C107.865 346.223 110.971 346.163 117.183 346.041C128.962 345.81 134.852 345.695 137.899 342.95C139.908 341.14 141.18 338.653 141.472 335.964C141.914 331.887 138.561 327.044 131.853 317.357C128.316 312.248 126.547 309.694 126.223 306.981C126.006 305.161 126.247 303.315 126.925 301.612C127.935 299.073 130.3 297.059 135.032 293.031L146.661 283.13C151.391 279.103 153.756 277.089 156.422 276.497C158.213 276.099 160.074 276.155 161.838 276.661C164.463 277.413 166.702 279.566 171.181 283.872C179.67 292.036 183.915 296.117 188.008 296.332C190.711 296.474 193.372 295.614 195.481 293.917C198.674 291.347 199.727 285.554 201.832 273.968C202.943 267.858 203.498 264.803 205.186 262.657C206.32 261.214 207.797 260.078 209.483 259.352C211.991 258.273 215.086 258.521 221.277 259.018L236.505 260.24C242.697 260.737 245.793 260.986 248.097 262.452C249.645 263.437 250.921 264.793 251.811 266.398C253.135 268.786 253.196 271.891 253.318 278.102ZM215.35 428.344C241.973 430.48 265.287 410.631 267.423 384.008C269.56 357.386 249.711 334.072 223.088 331.935C196.466 329.798 173.152 349.648 171.015 376.27C168.878 402.893 188.728 426.207 215.35 428.344Z" fill="white"/>
<defs>
<linearGradient id="paint0_linear_401_9" x1="426.5" y1="50" x2="151.5" y2="501.5" gradientUnits="userSpaceOnUse">
<stop stop-color="#FF5EF9"/>
<stop offset="1" stop-color="#1464FF"/>
</linearGradient>
</defs>
</svg>
