<svg width="100%" height="100%" viewBox="0 0 577 524" fill="none" xmlns="http://www.w3.org/2000/svg">
<ellipse cx="288" cy="266.5" rx="225" ry="221.5" fill="url(#paint0_linear_3_32)"/>
<rect x="56.8182" y="134" width="122.182" height="10" rx="5" fill="#1B3667"/>
<rect x="56.8182" y="178" width="79.4182" height="10" rx="5" fill="#1B3667"/>
<rect x="61.1818" y="200" width="90.7636" height="10" rx="5" fill="#1B3667"/>
<rect x="132.745" y="156" width="24.4364" height="10" rx="5" fill="#1B3667"/>
<rect x="35" y="156" width="87.2727" height="10" rx="5" fill="#1B3667"/>
<path d="M339.43 47.551H334.43V47.8004L334.455 48.0485L339.43 47.551ZM339.43 47.551H344.43V47.3016L344.405 47.0534L339.43 47.551ZM342.993 83.1777L347.968 82.6802V82.6802L342.993 83.1777ZM343.791 85.857L341.877 90.4764V90.4764L343.791 85.857ZM346.249 84.5266L343.083 80.6568V80.6568L346.249 84.5266ZM373.96 61.854L370.794 57.9842L370.794 57.9843L373.96 61.854ZM375.344 61.0562L375.095 66.05L375.344 61.0562ZM376.641 61.9877L373.105 65.5233L373.105 65.5233L376.641 61.9877ZM402.012 87.3588L398.476 90.8943L398.476 90.8943L402.012 87.3588ZM402.943 88.656L397.95 88.9051V88.9051L402.943 88.656ZM402.146 90.0395L398.276 86.8732L398.276 86.8733L402.146 90.0395ZM379.473 117.751L375.603 114.584L375.603 114.584L379.473 117.751ZM378.142 120.209L373.523 122.123L373.523 122.123L378.142 120.209ZM380.822 121.007L381.319 116.032L380.822 121.007ZM416.449 124.57L415.951 129.545L416.449 124.57ZM417.991 124.984L414.284 128.339L414.284 128.339L417.991 124.984ZM417.991 164.016L414.284 160.661L414.284 160.661L417.991 164.016ZM416.449 164.43L415.951 159.455L416.449 164.43ZM380.825 167.992L381.323 172.968L380.825 167.992ZM378.146 168.79L373.527 166.877L373.527 166.877L378.146 168.79ZM379.477 171.249L375.607 174.415L375.607 174.415L379.477 171.249ZM402.146 198.956L398.276 202.122L398.276 202.122L402.146 198.956ZM402.944 200.34L407.938 200.589V200.589L402.944 200.34ZM402.012 201.637L398.477 198.101L402.012 201.637ZM376.641 227.008L373.106 223.472L373.106 223.472L376.641 227.008ZM375.344 227.939L375.095 222.946L375.344 227.939ZM373.961 227.142L377.127 223.272L377.045 223.205L376.961 223.142L373.961 227.142ZM373.961 227.142L370.794 231.011L370.876 231.078L370.961 231.142L373.961 227.142ZM346.25 204.469L343.084 208.339H343.084L346.25 204.469ZM343.791 203.139L341.878 198.519L341.878 198.519L343.791 203.139ZM342.993 205.818L347.968 206.315L342.993 205.818ZM339.43 241.449L344.405 241.947L344.405 241.947L339.43 241.449ZM299.57 241.449L294.595 241.947L294.595 241.947L299.57 241.449ZM296.007 205.822L300.982 205.324L296.007 205.822ZM295.209 203.143L297.123 198.523L297.123 198.523L295.209 203.143ZM292.751 204.473L289.584 200.603L289.584 200.603L292.751 204.473ZM265.039 227.146L268.205 231.016L268.205 231.016L265.039 227.146ZM262.358 227.012L265.894 223.477L265.894 223.477L262.358 227.012ZM236.987 201.641L233.452 205.177L233.452 205.177L236.987 201.641ZM236.056 200.344L231.062 200.593V200.593L236.056 200.344ZM236.854 198.961L240.723 202.127L240.723 202.127L236.854 198.961ZM259.527 171.249L255.657 168.083L255.657 168.083L259.527 171.249ZM260.857 168.791L256.237 170.704L256.237 170.704L260.857 168.791ZM258.178 167.993L257.68 172.968H257.68L258.178 167.993ZM222.551 164.43L223.049 159.455L222.8 159.43H222.551V164.43ZM222.551 164.43L222.053 169.405L222.302 169.43H222.551V164.43ZM221.009 164.016L224.716 160.661L224.716 160.661L221.009 164.016ZM220.75 162.44H215.75H220.75ZM220.75 126.56H225.75H220.75ZM221.009 124.984L224.716 128.339L224.716 128.339L221.009 124.984ZM222.551 124.57V119.57H222.302L222.053 119.595L222.551 124.57ZM222.551 124.57V129.57H222.8L223.049 129.545L222.551 124.57ZM258.181 121.007L257.684 116.032H257.684L258.181 121.007ZM260.861 120.209L256.241 118.296L256.241 118.296L260.861 120.209ZM259.53 117.75L255.66 120.917H255.66L259.53 117.75ZM236.854 90.035L232.984 93.2012H232.984L236.854 90.035ZM236.056 88.6515L241.05 88.9006V88.9006L236.056 88.6515ZM236.988 87.3543L233.452 83.8188L236.988 87.3543ZM262.359 61.9833L265.894 65.5188L265.894 65.5188L262.359 61.9833ZM263.656 61.0517L263.905 66.0455H263.905L263.656 61.0517ZM265.039 61.8496L261.873 65.7193L261.873 65.7194L265.039 61.8496ZM292.751 84.5227L289.585 88.3925L289.585 88.3925L292.751 84.5227ZM295.21 85.8531L297.123 90.4725L297.123 90.4725L295.21 85.8531ZM296.008 83.1738L291.032 82.6763L296.008 83.1738ZM299.57 47.551L294.595 47.0535L294.595 47.0535L299.57 47.551ZM339.016 46.0085L342.371 42.3013L342.371 42.3013L339.016 46.0085ZM344.43 47.551V47.551H334.43V47.551H344.43ZM347.968 82.6802L344.405 47.0535L334.455 48.0485L338.018 83.6752L347.968 82.6802ZM345.704 81.2376C346.593 81.6058 347.238 82.2203 347.639 82.8321C347.978 83.3502 348.082 83.7723 348.095 83.8242C348.113 83.8955 348.099 83.865 348.069 83.6247C348.04 83.3939 348.011 83.1084 347.968 82.6802L338.018 83.6752C338.082 84.3229 338.175 85.3823 338.397 86.2639C338.62 87.1526 339.349 89.4293 341.877 90.4764L345.704 81.2376ZM343.083 80.6568C342.75 80.9293 342.528 81.1107 342.344 81.2533C342.152 81.4017 342.122 81.414 342.185 81.3762C342.231 81.3488 342.602 81.1236 343.209 80.9972C343.924 80.8479 344.815 80.8693 345.704 81.2376L341.877 90.4764C344.405 91.5234 346.53 90.4291 347.317 89.9588C348.097 89.4922 348.912 88.8086 349.416 88.3964L343.083 80.6568ZM370.794 57.9843L343.083 80.6568L349.415 88.3964L377.126 65.7238L370.794 57.9843ZM375.593 56.0624C373.989 55.9824 372.784 56.5816 372.112 57.0009C371.56 57.3446 371.023 57.7965 370.794 57.9842L377.126 65.7239C377.307 65.5764 377.401 65.4994 377.474 65.4427C377.548 65.3849 377.509 65.4204 377.403 65.4864C377.293 65.5547 377.019 65.7154 376.615 65.8479C376.175 65.9918 375.657 66.078 375.095 66.05L375.593 56.0624ZM380.176 58.4522C379.967 58.2426 379.477 57.7395 378.963 57.3426C378.336 56.8585 377.197 56.1424 375.593 56.0624L375.095 66.05C374.532 66.0219 374.025 65.8846 373.602 65.6976C373.213 65.5255 372.956 65.3384 372.854 65.2595C372.755 65.1833 372.719 65.1441 372.787 65.2089C372.854 65.2726 372.941 65.3586 373.105 65.5233L380.176 58.4522ZM405.547 83.8232L380.176 58.4522L373.105 65.5233L398.476 90.8943L405.547 83.8232ZM407.937 88.4069C407.857 86.8028 407.141 85.6639 406.657 85.0366C406.26 84.5222 405.757 84.0328 405.547 83.8232L398.476 90.8943C398.641 91.059 398.727 91.1454 398.791 91.2123C398.856 91.2803 398.816 91.2445 398.74 91.1458C398.661 91.0435 398.474 90.787 398.302 90.3975C398.115 89.9744 397.978 89.4672 397.95 88.9051L407.937 88.4069ZM406.015 93.2057C406.203 92.9763 406.655 92.4393 406.999 91.888C407.418 91.2155 408.017 90.011 407.937 88.4069L397.95 88.9051C397.922 88.3429 398.008 87.8246 398.152 87.385C398.284 86.9803 398.445 86.7064 398.513 86.5968C398.579 86.491 398.615 86.4514 398.557 86.5256C398.5 86.5984 398.423 86.693 398.276 86.8732L406.015 93.2057ZM383.343 120.917L406.015 93.2056L398.276 86.8733L375.603 114.584L383.343 120.917ZM382.762 118.296C383.13 119.185 383.152 120.076 383.002 120.791C382.876 121.398 382.651 121.769 382.623 121.815C382.585 121.878 382.598 121.848 382.746 121.656C382.889 121.472 383.07 121.25 383.343 120.917L375.603 114.584C375.191 115.088 374.507 115.903 374.041 116.683C373.57 117.469 372.476 119.595 373.523 122.123L382.762 118.296ZM381.319 116.032C380.891 115.989 380.606 115.96 380.375 115.931C380.134 115.901 380.104 115.887 380.175 115.905C380.227 115.918 380.649 116.022 381.167 116.361C381.779 116.762 382.394 117.407 382.762 118.296L373.523 122.123C374.57 124.651 376.847 125.38 377.736 125.603C378.617 125.825 379.676 125.918 380.324 125.982L381.319 116.032ZM416.947 119.595L381.319 116.032L380.324 125.982L415.951 129.545L416.947 119.595ZM421.699 121.629C420.621 120.438 419.346 120.01 418.574 119.831C417.941 119.684 417.241 119.624 416.947 119.595L415.951 129.545C416.183 129.568 416.305 129.581 416.396 129.592C416.489 129.604 416.436 129.601 416.315 129.573C416.189 129.544 415.882 129.463 415.502 129.271C415.089 129.062 414.662 128.756 414.284 128.339L421.699 121.629ZM423.25 126.56C423.25 126.264 423.26 125.562 423.177 124.917C423.075 124.131 422.776 122.82 421.699 121.629L414.284 128.339C413.906 127.922 413.645 127.466 413.478 127.035C413.324 126.637 413.275 126.324 413.259 126.196C413.243 126.072 413.245 126.019 413.247 126.113C413.25 126.205 413.25 126.327 413.25 126.56H423.25ZM423.25 162.44V126.56H413.25V162.44H423.25ZM421.699 167.371C422.776 166.18 423.075 164.869 423.177 164.083C423.26 163.438 423.25 162.736 423.25 162.44H413.25C413.25 162.673 413.25 162.795 413.247 162.887C413.245 162.981 413.243 162.928 413.259 162.804C413.275 162.676 413.324 162.363 413.478 161.965C413.645 161.534 413.906 161.078 414.284 160.661L421.699 167.371ZM416.947 169.405C417.241 169.376 417.941 169.316 418.574 169.169C419.346 168.99 420.621 168.562 421.699 167.371L414.284 160.661C414.662 160.244 415.089 159.938 415.502 159.729C415.882 159.537 416.189 159.456 416.315 159.427C416.436 159.399 416.489 159.396 416.396 159.408C416.305 159.419 416.183 159.432 415.951 159.455L416.947 169.405ZM381.323 172.968L416.947 169.405L415.951 159.455L380.328 163.017L381.323 172.968ZM382.766 170.704C382.397 171.593 381.783 172.238 381.171 172.638C380.653 172.978 380.231 173.081 380.179 173.094C380.108 173.112 380.138 173.099 380.378 173.069C380.609 173.039 380.895 173.01 381.323 172.968L380.328 163.017C379.68 163.082 378.621 163.175 377.739 163.396C376.851 163.62 374.574 164.349 373.527 166.877L382.766 170.704ZM383.346 168.083C383.074 167.75 382.892 167.527 382.75 167.344C382.601 167.152 382.589 167.121 382.627 167.184C382.654 167.23 382.88 167.602 383.006 168.208C383.155 168.924 383.134 169.815 382.766 170.704L373.527 166.877C372.48 169.405 373.574 171.53 374.044 172.317C374.511 173.097 375.195 173.911 375.607 174.415L383.346 168.083ZM406.016 195.79L383.346 168.083L375.607 174.415L398.276 202.122L406.016 195.79ZM407.938 200.589C408.018 198.985 407.419 197.78 406.999 197.108C406.655 196.556 406.204 196.019 406.016 195.79L398.276 202.122C398.424 202.303 398.501 202.397 398.557 202.47C398.615 202.544 398.58 202.505 398.514 202.399C398.445 202.289 398.285 202.015 398.152 201.611C398.008 201.171 397.922 200.653 397.95 200.091L407.938 200.589ZM405.548 205.172C405.758 204.963 406.261 204.473 406.658 203.959C407.142 203.332 407.858 202.193 407.938 200.589L397.95 200.091C397.978 199.528 398.116 199.021 398.302 198.598C398.475 198.209 398.662 197.952 398.741 197.85C398.817 197.751 398.856 197.715 398.791 197.783C398.728 197.85 398.642 197.937 398.477 198.101L405.548 205.172ZM380.177 230.543L405.548 205.172L398.477 198.101L373.106 223.472L380.177 230.543ZM375.593 232.933C377.197 232.853 378.336 232.137 378.964 231.653C379.478 231.256 379.967 230.753 380.177 230.543L373.106 223.472C372.941 223.637 372.855 223.723 372.788 223.787C372.72 223.852 372.756 223.812 372.854 223.736C372.957 223.657 373.213 223.47 373.603 223.298C374.026 223.111 374.533 222.974 375.095 222.946L375.593 232.933ZM370.795 231.012C371.024 231.199 371.561 231.651 372.112 231.995C372.785 232.414 373.989 233.013 375.593 232.933L375.095 222.946C375.657 222.918 376.176 223.004 376.615 223.148C377.02 223.28 377.294 223.441 377.403 223.509C377.509 223.575 377.549 223.611 377.475 223.553C377.402 223.496 377.307 223.419 377.127 223.272L370.795 231.012ZM370.961 231.142L370.961 231.142L376.961 223.142L376.961 223.142L370.961 231.142ZM343.084 208.339L370.794 231.011L377.127 223.272L349.416 200.599L343.084 208.339ZM345.704 207.758C344.815 208.126 343.925 208.148 343.209 207.998C342.603 207.872 342.231 207.647 342.185 207.619C342.122 207.582 342.153 207.594 342.344 207.742C342.528 207.885 342.75 208.066 343.084 208.339L349.416 200.599C348.912 200.187 348.098 199.503 347.317 199.037C346.531 198.567 344.406 197.472 341.878 198.519L345.704 207.758ZM347.968 206.315C348.011 205.887 348.04 205.602 348.069 205.371C348.1 205.131 348.113 205.1 348.095 205.171C348.082 205.223 347.978 205.645 347.639 206.163C347.238 206.775 346.593 207.39 345.704 207.758L341.878 198.519C339.35 199.566 338.621 201.843 338.397 202.732C338.175 203.613 338.083 204.673 338.018 205.32L347.968 206.315ZM344.405 241.947L347.968 206.315L338.018 205.32L334.455 240.951L344.405 241.947ZM342.371 246.699C343.562 245.621 343.99 244.346 344.169 243.574C344.316 242.941 344.376 242.241 344.405 241.947L334.455 240.951C334.432 241.183 334.419 241.305 334.408 241.396C334.396 241.489 334.399 241.436 334.427 241.315C334.456 241.189 334.537 240.882 334.729 240.502C334.938 240.089 335.244 239.662 335.661 239.284L342.371 246.699ZM337.44 248.25C337.736 248.25 338.438 248.26 339.083 248.177C339.868 248.075 341.18 247.776 342.371 246.699L335.661 239.284C336.078 238.906 336.534 238.645 336.965 238.478C337.363 238.324 337.676 238.275 337.804 238.259C337.928 238.243 337.981 238.245 337.887 238.247C337.795 238.25 337.673 238.25 337.44 238.25V248.25ZM301.56 248.25H337.44V238.25H301.56V248.25ZM296.629 246.699C297.82 247.776 299.131 248.075 299.917 248.177C300.562 248.26 301.264 248.25 301.56 248.25V238.25C301.327 238.25 301.205 238.25 301.113 238.247C301.019 238.245 301.072 238.243 301.196 238.259C301.324 238.275 301.637 238.324 302.035 238.478C302.466 238.645 302.922 238.906 303.339 239.284L296.629 246.699ZM294.595 241.947C294.624 242.242 294.684 242.941 294.831 243.574C295.01 244.346 295.438 245.621 296.629 246.699L303.339 239.284C303.756 239.662 304.062 240.089 304.271 240.502C304.463 240.882 304.544 241.189 304.573 241.315C304.601 241.436 304.604 241.489 304.592 241.396C304.581 241.304 304.568 241.183 304.545 240.951L294.595 241.947ZM291.032 206.319L294.595 241.947L304.545 240.951L300.982 205.324L291.032 206.319ZM293.296 207.762C292.407 207.394 291.762 206.779 291.361 206.167C291.022 205.649 290.918 205.227 290.905 205.175C290.887 205.104 290.901 205.135 290.931 205.375C290.96 205.606 290.989 205.891 291.032 206.319L300.982 205.324C300.918 204.677 300.825 203.617 300.603 202.736C300.38 201.847 299.651 199.57 297.123 198.523L293.296 207.762ZM295.917 208.343C296.25 208.07 296.472 207.889 296.656 207.746C296.848 207.598 296.878 207.586 296.815 207.623C296.769 207.651 296.398 207.876 295.791 208.002C295.076 208.152 294.185 208.13 293.296 207.762L297.123 198.523C294.595 197.476 292.47 198.57 291.683 199.041C290.903 199.507 290.088 200.191 289.584 200.603L295.917 208.343ZM268.205 231.016L295.917 208.343L289.584 200.603L261.873 223.276L268.205 231.016ZM263.406 232.938C265.011 233.018 266.215 232.418 266.888 231.999C267.439 231.655 267.976 231.204 268.205 231.016L261.873 223.276C261.693 223.424 261.598 223.501 261.525 223.557C261.451 223.615 261.491 223.58 261.596 223.514C261.706 223.445 261.98 223.285 262.384 223.152C262.824 223.008 263.342 222.922 263.905 222.95L263.406 232.938ZM258.823 230.548C259.032 230.757 259.522 231.261 260.036 231.658C260.663 232.142 261.802 232.858 263.406 232.938L263.905 222.95C264.467 222.978 264.974 223.116 265.397 223.302C265.787 223.475 266.043 223.662 266.145 223.741C266.244 223.817 266.28 223.856 266.212 223.791C266.145 223.728 266.059 223.642 265.894 223.477L258.823 230.548ZM233.452 205.177L258.823 230.548L265.894 223.477L240.523 198.106L233.452 205.177ZM231.062 200.593C231.142 202.197 231.858 203.336 232.342 203.964C232.739 204.478 233.242 204.967 233.452 205.177L240.523 198.106C240.358 197.941 240.272 197.855 240.208 197.788C240.144 197.72 240.183 197.756 240.259 197.854C240.338 197.957 240.525 198.213 240.697 198.603C240.884 199.026 241.021 199.533 241.05 200.095L231.062 200.593ZM232.984 195.794C232.796 196.024 232.344 196.561 232 197.112C231.581 197.785 230.982 198.989 231.062 200.593L241.05 200.095C241.078 200.657 240.991 201.176 240.847 201.615C240.715 202.02 240.554 202.294 240.486 202.403C240.42 202.509 240.384 202.549 240.442 202.475C240.499 202.402 240.576 202.307 240.723 202.127L232.984 195.794ZM255.657 168.083L232.984 195.794L240.723 202.127L263.396 174.415L255.657 168.083ZM256.237 170.704C255.869 169.815 255.848 168.924 255.997 168.209C256.124 167.602 256.349 167.231 256.376 167.185C256.414 167.122 256.402 167.152 256.253 167.344C256.111 167.528 255.929 167.75 255.657 168.083L263.396 174.416C263.809 173.912 264.492 173.097 264.959 172.317C265.429 171.53 266.523 169.405 265.476 166.877L256.237 170.704ZM257.68 172.968C258.108 173.011 258.394 173.04 258.625 173.069C258.865 173.099 258.895 173.112 258.824 173.095C258.772 173.082 258.35 172.978 257.832 172.639C257.22 172.238 256.606 171.593 256.237 170.704L265.476 166.877C264.429 164.349 262.153 163.62 261.264 163.397C260.382 163.175 259.323 163.082 258.675 163.018L257.68 172.968ZM222.053 169.405L257.68 172.968L258.675 163.018L223.049 159.455L222.053 169.405ZM222.551 169.43H222.551V159.43H222.551V169.43ZM217.301 167.371C218.379 168.562 219.654 168.99 220.426 169.169C221.059 169.316 221.758 169.376 222.053 169.405L223.048 159.455C222.817 159.432 222.695 159.419 222.604 159.408C222.511 159.396 222.564 159.399 222.685 159.427C222.811 159.456 223.118 159.537 223.498 159.729C223.911 159.938 224.338 160.244 224.716 160.661L217.301 167.371ZM215.75 162.44C215.75 162.736 215.74 163.438 215.823 164.083C215.925 164.869 216.224 166.18 217.301 167.371L224.716 160.661C225.094 161.078 225.355 161.534 225.522 161.965C225.676 162.363 225.725 162.676 225.741 162.804C225.757 162.928 225.755 162.981 225.753 162.887C225.75 162.795 225.75 162.673 225.75 162.44H215.75ZM215.75 126.56L215.75 162.44H225.75L225.75 126.56H215.75ZM217.301 121.629C216.224 122.82 215.925 124.131 215.823 124.917C215.74 125.562 215.75 126.264 215.75 126.56H225.75C225.75 126.327 225.75 126.205 225.753 126.113C225.755 126.019 225.757 126.072 225.741 126.196C225.725 126.324 225.676 126.637 225.522 127.035C225.355 127.466 225.094 127.922 224.716 128.339L217.301 121.629ZM222.053 119.595C221.758 119.624 221.059 119.684 220.426 119.831C219.654 120.01 218.379 120.438 217.301 121.629L224.716 128.339C224.338 128.756 223.911 129.062 223.498 129.271C223.118 129.463 222.811 129.544 222.685 129.573C222.564 129.601 222.511 129.604 222.604 129.592C222.695 129.581 222.817 129.568 223.048 129.545L222.053 119.595ZM222.551 119.57H222.551V129.57H222.551V119.57ZM257.684 116.032L222.053 119.595L223.049 129.545L258.679 125.982L257.684 116.032ZM256.241 118.296C256.609 117.407 257.224 116.762 257.836 116.361C258.354 116.022 258.776 115.918 258.828 115.905C258.899 115.887 258.869 115.9 258.628 115.931C258.398 115.96 258.112 115.989 257.684 116.032L258.679 125.982C259.327 125.917 260.386 125.825 261.268 125.603C262.156 125.379 264.433 124.65 265.48 122.122L256.241 118.296ZM255.66 120.917C255.933 121.25 256.114 121.472 256.257 121.656C256.405 121.847 256.418 121.878 256.38 121.815C256.352 121.769 256.127 121.397 256.001 120.791C255.852 120.075 255.873 119.185 256.241 118.296L265.48 122.122C266.527 119.595 265.433 117.469 264.962 116.683C264.496 115.902 263.812 115.088 263.4 114.584L255.66 120.917ZM232.984 93.2012L255.66 120.917L263.4 114.584L240.724 86.8688L232.984 93.2012ZM231.062 88.4025C230.982 90.0066 231.582 91.2111 232.001 91.8835C232.345 92.4348 232.797 92.9718 232.984 93.2012L240.724 86.8688C240.576 86.6885 240.499 86.594 240.443 86.5211C240.385 86.4469 240.42 86.4865 240.486 86.5923C240.555 86.7019 240.715 86.9758 240.848 87.3805C240.992 87.8201 241.078 88.3384 241.05 88.9006L231.062 88.4025ZM233.452 83.8188C233.243 84.0284 232.74 84.5177 232.343 85.0321C231.858 85.6595 231.142 86.7983 231.062 88.4025L241.05 88.9006C241.022 89.4628 240.885 89.9699 240.698 90.393C240.526 90.7825 240.338 91.0391 240.26 91.1413C240.183 91.24 240.144 91.2759 240.209 91.2078C240.273 91.1409 240.359 91.0545 240.523 90.8898L233.452 83.8188ZM258.823 58.4477L233.452 83.8188L240.523 90.8898L265.894 65.5188L258.823 58.4477ZM263.407 56.0579C261.803 56.1379 260.664 56.854 260.037 57.3381C259.522 57.735 259.033 58.2381 258.823 58.4477L265.894 65.5188C266.059 65.3541 266.145 65.2681 266.212 65.2044C266.28 65.1396 266.244 65.1789 266.146 65.255C266.044 65.3339 265.787 65.521 265.398 65.6932C264.974 65.8801 264.467 66.0175 263.905 66.0455L263.407 56.0579ZM268.206 57.9798C267.976 57.7921 267.439 57.3402 266.888 56.9964C266.216 56.5771 265.011 55.9779 263.407 56.0579L263.905 66.0455C263.343 66.0735 262.825 65.9874 262.385 65.8434C261.98 65.7109 261.706 65.5502 261.597 65.4819C261.491 65.4159 261.451 65.3805 261.526 65.4382C261.598 65.4949 261.693 65.5719 261.873 65.7193L268.206 57.9798ZM295.917 80.6529L268.206 57.9798L261.873 65.7194L289.585 88.3925L295.917 80.6529ZM293.296 81.2337C294.185 80.8654 295.076 80.844 295.792 80.9933C296.398 81.1197 296.77 81.3449 296.816 81.3723C296.879 81.4101 296.848 81.3978 296.657 81.2494C296.473 81.1068 296.25 80.9254 295.917 80.6529L289.585 88.3925C290.089 88.8047 290.903 89.4883 291.683 89.9549C292.47 90.4252 294.595 91.5195 297.123 90.4725L293.296 81.2337ZM291.032 82.6763C290.99 83.1045 290.961 83.39 290.931 83.6208C290.901 83.8611 290.888 83.8916 290.906 83.8203C290.919 83.7684 291.023 83.3463 291.362 82.8283C291.762 82.2165 292.407 81.6019 293.296 81.2337L297.123 90.4725C299.651 89.4254 300.38 87.1487 300.604 86.26C300.825 85.3784 300.918 84.3191 300.983 83.6713L291.032 82.6763ZM294.595 47.0535L291.032 82.6763L300.983 83.6713L304.545 48.0485L294.595 47.0535ZM296.629 42.3013C295.438 43.379 295.01 44.6544 294.831 45.4263C294.684 46.0593 294.624 46.7585 294.595 47.0535L304.545 48.0485C304.568 47.8168 304.581 47.6955 304.592 47.6039C304.604 47.5106 304.601 47.5637 304.573 47.6852C304.544 47.8109 304.463 48.1182 304.271 48.4981C304.062 48.9107 303.756 49.3381 303.339 49.7158L296.629 42.3013ZM301.56 40.75C301.264 40.75 300.562 40.7403 299.917 40.8233C299.131 40.9246 297.82 41.2236 296.629 42.3013L303.339 49.7158C302.922 50.0935 302.466 50.355 302.035 50.522C301.637 50.6757 301.324 50.7248 301.196 50.7413C301.072 50.7572 301.019 50.7548 301.113 50.7526C301.205 50.7503 301.327 50.75 301.56 50.75V40.75ZM337.44 40.75H301.56V50.75H337.44V40.75ZM342.371 42.3013C341.18 41.2236 339.868 40.9246 339.083 40.8233C338.438 40.7403 337.736 40.75 337.44 40.75V50.75C337.673 50.75 337.795 50.7503 337.887 50.7526C337.981 50.7548 337.928 50.7572 337.804 50.7413C337.676 50.7248 337.363 50.6757 336.965 50.522C336.534 50.355 336.078 50.0935 335.661 49.7158L342.371 42.3013ZM344.405 47.0534C344.376 46.7585 344.316 46.0592 344.169 45.4263C343.99 44.6544 343.562 43.379 342.371 42.3013L335.661 49.7158C335.244 49.3381 334.938 48.9107 334.729 48.498C334.537 48.1182 334.456 47.8109 334.427 47.6852C334.399 47.5637 334.396 47.5106 334.408 47.6038C334.419 47.6955 334.432 47.8167 334.455 48.0485L344.405 47.0534ZM354 144.5C354 163.554 338.554 179 319.5 179V189C344.077 189 364 169.077 364 144.5H354ZM319.5 110C338.554 110 354 125.446 354 144.5H364C364 119.923 344.077 100 319.5 100V110ZM285 144.5C285 125.446 300.446 110 319.5 110V100C294.923 100 275 119.923 275 144.5H285ZM319.5 179C300.446 179 285 163.554 285 144.5H275C275 169.077 294.923 189 319.5 189V179Z" fill="white"/>
<path d="M456.763 234.884L451.788 235.382V235.382L456.763 234.884ZM461.229 279.537L456.253 280.034V280.034L461.229 279.537ZM462.027 282.216L460.113 286.836L460.113 286.836L462.027 282.216ZM464.485 280.886L461.319 277.016L461.319 277.016L464.485 280.886ZM499.217 252.469L502.383 256.339L502.383 256.339L499.217 252.469ZM500.6 251.671L500.849 246.678L500.849 246.678L500.6 251.671ZM501.897 252.603L505.433 249.067L505.433 249.067L501.897 252.603ZM533.397 284.102L529.861 287.638L529.861 287.638L533.397 284.102ZM534.328 285.399L529.334 285.649V285.649L534.328 285.399ZM533.53 286.783L537.267 290.105L537.335 290.028L537.4 289.949L533.53 286.783ZM533.53 286.783L529.793 283.461L529.725 283.538L529.66 283.617L533.53 286.783ZM505.113 321.515L508.983 324.681L508.983 324.681L505.113 321.515ZM503.783 323.973L499.164 325.887L499.164 325.887L503.783 323.973ZM506.462 324.771L506.96 319.796L506.462 324.771ZM551.116 329.237L551.613 324.261H551.613L551.116 329.237ZM552.658 329.651L548.951 333.006L548.951 333.006L552.658 329.651ZM551.116 377.763L550.618 372.788H550.618L551.116 377.763ZM506.467 382.228L505.969 377.253H505.969L506.467 382.228ZM503.788 383.026L499.168 381.113L499.168 381.113L503.788 383.026ZM505.118 385.485L501.248 388.651L505.118 385.485ZM533.531 420.212L537.401 417.046V417.046L533.531 420.212ZM534.329 421.595L539.322 421.844L534.329 421.595ZM500.601 455.323L500.85 460.317L500.601 455.323ZM499.217 454.525L502.383 450.656L502.383 450.656L499.217 454.525ZM464.486 426.109L461.32 429.979L461.32 429.979L464.486 426.109ZM462.027 424.778L460.114 420.159L460.114 420.159L462.027 424.778ZM461.229 427.458L456.254 426.96V426.96L461.229 427.458ZM456.763 472.116L451.788 471.618V471.618L456.763 472.116ZM408.651 473.658L412.006 469.951L412.006 469.951L408.651 473.658ZM408.237 472.116L403.261 472.613V472.613L408.237 472.116ZM403.771 427.462L398.796 427.96L403.771 427.462ZM402.973 424.783L404.887 420.164L404.887 420.164L402.973 424.783ZM400.515 426.114L403.681 429.983L403.681 429.983L400.515 426.114ZM365.782 454.531L362.616 450.661L362.616 450.661L365.782 454.531ZM364.399 455.329L364.15 460.323H364.15L364.399 455.329ZM363.102 454.397L366.637 450.862L366.637 450.862L363.102 454.397ZM331.602 422.898L328.067 426.433L328.067 426.433L331.602 422.898ZM330.671 421.601L325.677 421.85V421.85L330.671 421.601ZM331.469 420.217L335.338 423.383L335.338 423.383L331.469 420.217ZM359.886 385.485L363.756 388.651H363.756L359.886 385.485ZM358.537 382.229L359.034 377.254H359.034L358.537 382.229ZM313.884 377.763L314.382 372.788H314.382L313.884 377.763ZM312.083 375.773H307.083H312.083ZM312.083 331.227H317.083H312.083ZM312.342 329.651L316.049 333.006L316.049 333.006L312.342 329.651ZM313.884 329.237L313.387 324.261H313.387L313.884 329.237ZM358.541 324.771L358.044 319.796H358.044L358.541 324.771ZM361.221 323.973L365.84 325.886L365.84 325.886L361.221 323.973ZM359.89 321.514L356.02 324.68L356.021 324.681L359.89 321.514ZM331.469 286.777L327.599 289.944L327.599 289.944L331.469 286.777ZM330.671 285.394L335.665 285.643V285.643L330.671 285.394ZM331.603 284.097L335.138 287.632L335.139 287.632L331.603 284.097ZM363.102 252.598L366.638 256.133L366.638 256.133L363.102 252.598ZM364.399 251.666L364.15 246.672L364.399 251.666ZM365.783 252.464L368.949 248.594V248.594L365.783 252.464ZM400.515 280.881L403.681 277.011L400.515 280.881ZM402.974 282.211L404.887 286.831H404.887L402.974 282.211ZM403.772 279.532L398.797 279.035V279.035L403.772 279.532ZM408.237 234.884L403.261 234.387V234.387L408.237 234.884ZM408.651 233.342L412.006 237.049L412.006 237.049L408.651 233.342ZM461.739 234.387C461.709 234.092 461.649 233.393 461.502 232.76C461.323 231.988 460.895 230.712 459.704 229.635L452.994 237.049C452.577 236.671 452.271 236.244 452.062 235.831C451.87 235.452 451.79 235.144 451.761 235.018C451.732 234.897 451.73 234.844 451.741 234.937C451.753 235.029 451.765 235.15 451.788 235.382L461.739 234.387ZM466.204 279.039L461.739 234.387L451.788 235.382L456.253 280.034L466.204 279.039ZM463.94 277.597C464.829 277.965 465.474 278.58 465.874 279.191C466.214 279.709 466.317 280.132 466.33 280.183C466.348 280.255 466.335 280.224 466.305 279.984C466.276 279.753 466.247 279.468 466.204 279.039L456.253 280.034C456.318 280.682 456.411 281.742 456.633 282.623C456.856 283.512 457.585 285.789 460.113 286.836L463.94 277.597ZM461.319 277.016C460.986 277.289 460.764 277.47 460.58 277.613C460.388 277.761 460.357 277.773 460.421 277.735C460.466 277.708 460.838 277.483 461.444 277.356C462.16 277.207 463.051 277.229 463.94 277.597L460.113 286.836C462.641 287.883 464.766 286.788 465.553 286.318C466.333 285.851 467.148 285.168 467.651 284.756L461.319 277.016ZM496.05 248.599L461.319 277.016L467.651 284.756L502.383 256.339L496.05 248.599ZM500.849 246.678C499.245 246.598 498.041 247.197 497.368 247.616C496.817 247.96 496.28 248.412 496.05 248.6L502.383 256.339C502.563 256.192 502.658 256.115 502.73 256.058C502.805 256 502.765 256.036 502.659 256.102C502.55 256.17 502.276 256.331 501.871 256.463C501.431 256.607 500.913 256.693 500.351 256.665L500.849 246.678ZM505.433 249.067C505.223 248.858 504.734 248.355 504.219 247.958C503.592 247.474 502.453 246.758 500.849 246.678L500.351 256.665C499.789 256.637 499.282 256.5 498.859 256.313C498.469 256.141 498.212 255.954 498.11 255.875C498.012 255.799 497.976 255.759 498.044 255.824C498.111 255.888 498.197 255.974 498.362 256.139L505.433 249.067ZM536.932 280.567L505.433 249.067L498.362 256.139L529.861 287.638L536.932 280.567ZM539.322 285.15C539.242 283.546 538.526 282.407 538.042 281.78C537.645 281.266 537.142 280.776 536.932 280.567L529.861 287.638C530.026 287.803 530.112 287.889 530.175 287.956C530.24 288.024 530.201 287.988 530.125 287.889C530.046 287.787 529.859 287.531 529.687 287.141C529.5 286.718 529.362 286.211 529.334 285.649L539.322 285.15ZM537.4 289.949C537.588 289.72 538.04 289.183 538.383 288.631C538.803 287.959 539.402 286.754 539.322 285.15L529.334 285.649C529.306 285.086 529.392 284.568 529.536 284.128C529.669 283.724 529.83 283.45 529.898 283.34C529.964 283.235 529.999 283.195 529.942 283.269C529.885 283.342 529.808 283.436 529.661 283.617L537.4 289.949ZM537.267 290.105L537.267 290.105L529.793 283.461L529.793 283.461L537.267 290.105ZM508.983 324.681L537.4 289.949L529.66 283.617L501.244 318.348L508.983 324.681ZM508.402 322.06C508.771 322.949 508.792 323.84 508.643 324.555C508.516 325.162 508.291 325.533 508.264 325.579C508.226 325.642 508.238 325.612 508.387 325.42C508.529 325.236 508.711 325.014 508.983 324.681L501.244 318.348C500.831 318.852 500.148 319.667 499.681 320.447C499.211 321.234 498.117 323.359 499.164 325.887L508.402 322.06ZM506.96 319.796C506.532 319.753 506.246 319.724 506.015 319.695C505.775 319.665 505.744 319.651 505.816 319.669C505.868 319.682 506.29 319.786 506.808 320.125C507.42 320.526 508.034 321.171 508.402 322.06L499.164 325.887C500.211 328.415 502.487 329.144 503.376 329.367C504.258 329.589 505.317 329.682 505.965 329.746L506.96 319.796ZM551.613 324.261L506.96 319.796L505.965 329.746L550.618 334.212L551.613 324.261ZM556.365 326.296C555.288 325.105 554.012 324.677 553.24 324.498C552.607 324.351 551.908 324.291 551.613 324.261L550.618 334.212C550.85 334.235 550.971 334.247 551.063 334.259C551.156 334.27 551.103 334.268 550.982 334.239C550.856 334.21 550.548 334.13 550.169 333.938C549.756 333.729 549.328 333.423 548.951 333.006L556.365 326.296ZM557.917 331.227C557.917 330.93 557.926 330.228 557.843 329.584C557.742 328.798 557.443 327.486 556.365 326.296L548.951 333.006C548.573 332.588 548.312 332.133 548.145 331.701C547.991 331.304 547.942 330.99 547.925 330.862C547.909 330.739 547.912 330.686 547.914 330.779C547.916 330.872 547.917 330.994 547.917 331.227H557.917ZM557.917 375.773V331.227H547.917V375.773H557.917ZM556.365 380.704C557.443 379.514 557.742 378.202 557.843 377.416C557.926 376.772 557.917 376.07 557.917 375.773H547.917C547.917 376.006 547.916 376.128 547.914 376.22C547.912 376.314 547.909 376.261 547.925 376.138C547.942 376.01 547.991 375.696 548.145 375.299C548.312 374.867 548.573 374.412 548.951 373.994L556.365 380.704ZM551.613 382.739C551.908 382.709 552.607 382.649 553.24 382.502C554.012 382.323 555.288 381.895 556.365 380.704L548.951 373.994C549.329 373.577 549.756 373.271 550.169 373.062C550.548 372.87 550.856 372.79 550.982 372.761C551.103 372.732 551.156 372.73 551.063 372.741C550.971 372.753 550.85 372.765 550.618 372.788L551.613 382.739ZM506.964 387.203L551.613 382.739L550.618 372.788L505.969 377.253L506.964 387.203ZM508.407 384.94C508.039 385.829 507.424 386.473 506.812 386.874C506.294 387.213 505.872 387.317 505.82 387.33C505.749 387.348 505.78 387.335 506.02 387.304C506.251 387.275 506.536 387.246 506.964 387.203L505.969 377.253C505.322 377.318 504.262 377.41 503.381 377.632C502.492 377.856 500.215 378.585 499.168 381.113L508.407 384.94ZM508.988 382.319C508.715 381.986 508.534 381.763 508.391 381.579C508.243 381.388 508.231 381.357 508.268 381.42C508.296 381.466 508.521 381.838 508.647 382.444C508.797 383.16 508.775 384.051 508.407 384.94L499.168 381.113C498.121 383.641 499.215 385.766 499.686 386.552C500.152 387.333 500.836 388.147 501.248 388.651L508.988 382.319ZM537.401 417.046L508.988 382.319L501.248 388.651L529.661 423.378L537.401 417.046ZM539.322 421.844C539.403 420.24 538.803 419.036 538.384 418.363C538.04 417.812 537.588 417.275 537.401 417.046L529.661 423.378C529.809 423.558 529.885 423.653 529.942 423.726C530 423.8 529.964 423.76 529.898 423.654C529.83 423.545 529.67 423.271 529.537 422.866C529.393 422.427 529.307 421.908 529.335 421.346L539.322 421.844ZM536.933 426.428C537.142 426.218 537.645 425.729 538.042 425.215C538.526 424.587 539.242 423.448 539.322 421.844L529.335 421.346C529.363 420.784 529.5 420.277 529.687 419.854C529.859 419.464 530.046 419.208 530.125 419.105C530.202 419.007 530.241 418.971 530.176 419.039C530.112 419.106 530.026 419.192 529.862 419.357L536.933 426.428ZM505.433 457.927L536.933 426.428L529.862 419.357L498.362 450.856L505.433 457.927ZM500.85 460.317C502.454 460.237 503.593 459.521 504.22 459.037C504.734 458.64 505.224 458.137 505.433 457.927L498.362 450.856C498.198 451.021 498.111 451.107 498.044 451.171C497.976 451.235 498.012 451.196 498.111 451.12C498.213 451.041 498.47 450.854 498.859 450.682C499.282 450.495 499.789 450.358 500.352 450.329L500.85 460.317ZM496.051 458.395C496.28 458.583 496.817 459.035 497.369 459.379C498.041 459.798 499.246 460.397 500.85 460.317L500.352 450.329C500.914 450.301 501.432 450.388 501.872 450.532C502.276 450.664 502.55 450.825 502.66 450.893C502.766 450.959 502.805 450.994 502.731 450.937C502.658 450.88 502.564 450.803 502.383 450.656L496.051 458.395ZM461.32 429.979L496.051 458.395L502.383 450.656L467.652 422.239L461.32 429.979ZM463.94 429.398C463.051 429.766 462.161 429.787 461.445 429.638C460.839 429.512 460.467 429.287 460.421 429.259C460.358 429.221 460.389 429.234 460.58 429.382C460.764 429.525 460.986 429.706 461.32 429.979L467.652 422.239C467.148 421.827 466.334 421.143 465.553 420.677C464.767 420.206 462.642 419.112 460.114 420.159L463.94 429.398ZM466.204 427.955C466.247 427.527 466.276 427.242 466.305 427.011C466.336 426.77 466.349 426.74 466.331 426.811C466.318 426.863 466.214 427.285 465.875 427.803C465.474 428.415 464.829 429.03 463.941 429.398L460.114 420.159C457.586 421.206 456.857 423.483 456.633 424.371C456.411 425.253 456.319 426.312 456.254 426.96L466.204 427.955ZM461.739 472.613L466.204 427.955L456.254 426.96L451.788 471.618L461.739 472.613ZM459.704 477.365C460.895 476.288 461.323 475.012 461.502 474.24C461.649 473.607 461.709 472.908 461.739 472.613L451.788 471.618C451.765 471.85 451.753 471.971 451.741 472.063C451.73 472.156 451.732 472.103 451.761 471.982C451.79 471.856 451.87 471.548 452.062 471.169C452.271 470.756 452.577 470.329 452.994 469.951L459.704 477.365ZM454.773 478.917C455.07 478.917 455.771 478.926 456.416 478.843C457.202 478.742 458.513 478.443 459.704 477.365L452.994 469.951C453.412 469.573 453.867 469.312 454.299 469.145C454.696 468.991 455.01 468.942 455.138 468.925C455.261 468.909 455.314 468.912 455.22 468.914C455.128 468.916 455.006 468.917 454.773 468.917V478.917ZM410.227 478.917H454.773V468.917H410.227V478.917ZM405.296 477.365C406.486 478.443 407.798 478.742 408.584 478.843C409.228 478.926 409.93 478.917 410.227 478.917V468.917C409.994 468.917 409.872 468.916 409.779 468.914C409.686 468.912 409.739 468.909 409.862 468.925C409.99 468.942 410.304 468.991 410.701 469.145C411.133 469.312 411.588 469.573 412.006 469.951L405.296 477.365ZM403.261 472.613C403.291 472.908 403.351 473.607 403.498 474.24C403.677 475.012 404.105 476.288 405.296 477.365L412.006 469.951C412.423 470.329 412.729 470.756 412.938 471.169C413.13 471.548 413.21 471.856 413.239 471.982C413.267 472.103 413.27 472.156 413.259 472.063C413.247 471.971 413.235 471.85 413.212 471.618L403.261 472.613ZM398.796 427.96L403.261 472.613L413.212 471.618L408.746 426.965L398.796 427.96ZM401.06 429.403C400.171 429.034 399.526 428.42 399.125 427.808C398.786 427.29 398.682 426.868 398.669 426.816C398.651 426.745 398.665 426.775 398.695 427.015C398.724 427.246 398.753 427.532 398.796 427.96L408.746 426.965C408.682 426.317 408.589 425.258 408.367 424.376C408.144 423.488 407.415 421.211 404.887 420.164L401.06 429.403ZM403.681 429.983C404.014 429.711 404.236 429.529 404.42 429.387C404.612 429.238 404.642 429.226 404.579 429.264C404.533 429.291 404.162 429.517 403.555 429.643C402.84 429.792 401.949 429.771 401.06 429.403L404.887 420.164C402.359 419.117 400.234 420.211 399.447 420.681C398.667 421.148 397.852 421.832 397.348 422.244L403.681 429.983ZM368.949 458.401L403.681 429.983L397.348 422.244L362.616 450.661L368.949 458.401ZM364.15 460.323C365.754 460.403 366.958 459.803 367.631 459.384C368.182 459.04 368.719 458.588 368.949 458.401L362.616 450.661C362.436 450.809 362.341 450.886 362.268 450.942C362.194 451 362.234 450.965 362.34 450.899C362.449 450.83 362.723 450.67 363.128 450.537C363.568 450.393 364.086 450.307 364.648 450.335L364.15 460.323ZM359.566 457.933C359.776 458.142 360.265 458.645 360.779 459.042C361.407 459.526 362.546 460.243 364.15 460.323L364.648 450.335C365.21 450.363 365.717 450.5 366.14 450.687C366.53 450.859 366.786 451.047 366.889 451.125C366.987 451.202 367.023 451.241 366.955 451.176C366.888 451.112 366.802 451.026 366.637 450.862L359.566 457.933ZM328.067 426.433L359.566 457.933L366.637 450.862L335.138 419.362L328.067 426.433ZM325.677 421.85C325.757 423.454 326.473 424.593 326.957 425.22C327.354 425.734 327.857 426.224 328.067 426.433L335.138 419.362C334.973 419.198 334.887 419.111 334.824 419.044C334.759 418.976 334.798 419.012 334.874 419.111C334.953 419.213 335.14 419.47 335.312 419.859C335.499 420.282 335.637 420.789 335.665 421.352L325.677 421.85ZM327.599 417.051C327.411 417.28 326.959 417.817 326.616 418.369C326.196 419.041 325.597 420.246 325.677 421.85L335.665 421.352C335.693 421.914 335.606 422.432 335.463 422.872C335.33 423.276 335.169 423.55 335.101 423.66C335.035 423.766 335 423.805 335.057 423.731C335.114 423.658 335.191 423.564 335.338 423.383L327.599 417.051ZM356.016 382.319L327.599 417.051L335.338 423.383L363.756 388.651L356.016 382.319ZM356.597 384.94C356.228 384.051 356.207 383.16 356.356 382.444C356.483 381.838 356.708 381.466 356.735 381.421C356.773 381.357 356.761 381.388 356.612 381.58C356.47 381.764 356.288 381.986 356.016 382.319L363.756 388.651C364.168 388.148 364.851 387.333 365.318 386.553C365.788 385.766 366.883 383.641 365.836 381.113L356.597 384.94ZM358.039 387.204C358.468 387.247 358.753 387.276 358.984 387.305C359.224 387.335 359.255 387.348 359.183 387.33C359.131 387.317 358.709 387.214 358.191 386.874C357.58 386.474 356.965 385.829 356.597 384.94L365.836 381.113C364.788 378.585 362.512 377.856 361.623 377.633C360.741 377.411 359.682 377.318 359.034 377.254L358.039 387.204ZM313.387 382.739L358.039 387.204L359.034 377.254L314.382 372.788L313.387 382.739ZM308.635 380.704C309.712 381.895 310.988 382.323 311.76 382.502C312.393 382.649 313.092 382.709 313.387 382.739L314.382 372.788C314.15 372.765 314.029 372.753 313.937 372.741C313.844 372.73 313.897 372.732 314.018 372.761C314.144 372.79 314.451 372.87 314.831 373.062C315.244 373.271 315.671 373.577 316.049 373.994L308.635 380.704ZM307.083 375.773C307.083 376.07 307.074 376.772 307.157 377.416C307.258 378.202 307.557 379.514 308.635 380.704L316.049 373.994C316.427 374.412 316.688 374.867 316.855 375.299C317.009 375.696 317.058 376.01 317.075 376.138C317.091 376.261 317.088 376.314 317.086 376.22C317.084 376.128 317.083 376.006 317.083 375.773H307.083ZM307.083 331.227L307.083 375.773H317.083L317.083 331.227H307.083ZM308.635 326.296C307.557 327.486 307.258 328.798 307.157 329.584C307.074 330.228 307.083 330.93 307.083 331.227H317.083C317.083 330.994 317.084 330.872 317.086 330.779C317.088 330.686 317.091 330.739 317.075 330.862C317.058 330.99 317.009 331.304 316.855 331.701C316.688 332.133 316.427 332.588 316.049 333.006L308.635 326.296ZM313.387 324.261C313.092 324.291 312.393 324.351 311.76 324.498C310.988 324.677 309.712 325.105 308.635 326.296L316.049 333.006C315.671 333.423 315.244 333.729 314.831 333.938C314.452 334.13 314.144 334.21 314.018 334.239C313.897 334.268 313.844 334.27 313.937 334.259C314.029 334.247 314.15 334.235 314.382 334.212L313.387 324.261ZM358.044 319.796L313.387 324.261L314.382 334.212L359.039 329.746L358.044 319.796ZM356.601 322.06C356.97 321.171 357.584 320.526 358.196 320.125C358.714 319.786 359.136 319.682 359.188 319.669C359.259 319.651 359.229 319.664 358.988 319.695C358.758 319.724 358.472 319.753 358.044 319.796L359.039 329.746C359.687 329.681 360.746 329.589 361.628 329.367C362.516 329.143 364.793 328.414 365.84 325.886L356.601 322.06ZM356.021 324.681C356.293 325.014 356.474 325.236 356.617 325.42C356.765 325.611 356.778 325.642 356.74 325.579C356.712 325.533 356.487 325.161 356.361 324.555C356.212 323.839 356.233 322.949 356.601 322.06L365.84 325.886C366.887 323.359 365.793 321.233 365.322 320.447C364.856 319.666 364.172 318.852 363.76 318.348L356.021 324.681ZM327.599 289.944L356.02 324.68L363.76 318.348L335.339 283.611L327.599 289.944ZM325.678 285.145C325.598 286.749 326.197 287.954 326.616 288.626C326.96 289.177 327.412 289.714 327.599 289.944L335.339 283.611C335.192 283.431 335.115 283.337 335.058 283.264C335 283.189 335.036 283.229 335.102 283.335C335.17 283.444 335.331 283.718 335.463 284.123C335.607 284.563 335.693 285.081 335.665 285.643L325.678 285.145ZM328.067 280.561C327.858 280.771 327.355 281.26 326.958 281.775C326.474 282.402 325.758 283.541 325.678 285.145L335.665 285.643C335.637 286.205 335.5 286.712 335.313 287.136C335.141 287.525 334.954 287.782 334.875 287.884C334.799 287.983 334.759 288.018 334.824 287.95C334.888 287.883 334.974 287.797 335.138 287.632L328.067 280.561ZM359.567 249.062L328.067 280.561L335.139 287.632L366.638 256.133L359.567 249.062ZM364.15 246.672C362.546 246.752 361.407 247.468 360.78 247.952C360.266 248.349 359.776 248.852 359.567 249.062L366.638 256.133C366.802 255.968 366.889 255.882 366.956 255.819C367.024 255.754 366.988 255.793 366.889 255.869C366.787 255.948 366.531 256.135 366.141 256.307C365.718 256.494 365.211 256.632 364.649 256.66L364.15 246.672ZM368.949 248.594C368.72 248.406 368.183 247.954 367.631 247.611C366.959 247.191 365.755 246.592 364.15 246.672L364.649 256.66C364.086 256.688 363.568 256.602 363.128 256.458C362.724 256.325 362.45 256.164 362.34 256.096C362.234 256.03 362.195 255.995 362.269 256.052C362.342 256.109 362.436 256.186 362.617 256.334L368.949 248.594ZM403.681 277.011L368.949 248.594L362.617 256.334L397.349 284.751L403.681 277.011ZM401.06 277.592C401.949 277.224 402.84 277.202 403.556 277.352C404.162 277.478 404.534 277.703 404.58 277.731C404.643 277.768 404.612 277.756 404.421 277.608C404.237 277.465 404.014 277.284 403.681 277.011L397.349 284.751C397.853 285.163 398.667 285.847 399.448 286.313C400.234 286.784 402.359 287.878 404.887 286.831L401.06 277.592ZM398.797 279.035C398.754 279.463 398.725 279.748 398.696 279.979C398.665 280.22 398.652 280.25 398.67 280.179C398.683 280.127 398.787 279.705 399.126 279.187C399.527 278.575 400.171 277.96 401.06 277.592L404.887 286.831C407.415 285.784 408.144 283.507 408.368 282.618C408.59 281.737 408.682 280.677 408.747 280.03L398.797 279.035ZM403.261 234.387L398.797 279.035L408.747 280.03L413.212 235.382L403.261 234.387ZM405.296 229.635C404.105 230.712 403.677 231.988 403.498 232.76C403.351 233.393 403.291 234.092 403.261 234.387L413.212 235.382C413.235 235.15 413.247 235.029 413.259 234.937C413.27 234.844 413.267 234.897 413.239 235.018C413.21 235.144 413.13 235.452 412.938 235.831C412.729 236.244 412.423 236.671 412.006 237.049L405.296 229.635ZM410.227 228.083C409.93 228.083 409.228 228.074 408.584 228.157C407.798 228.258 406.486 228.557 405.296 229.635L412.006 237.049C411.588 237.427 411.133 237.688 410.701 237.855C410.304 238.009 409.99 238.058 409.862 238.075C409.739 238.091 409.686 238.088 409.779 238.086C409.872 238.084 409.994 238.083 410.227 238.083V228.083ZM454.773 228.083H410.227V238.083H454.773V228.083ZM459.704 229.635C458.513 228.557 457.202 228.258 456.416 228.157C455.771 228.074 455.07 228.083 454.773 228.083V238.083C455.006 238.083 455.128 238.084 455.22 238.086C455.314 238.088 455.261 238.091 455.138 238.075C455.01 238.058 454.696 238.009 454.299 237.855C453.867 237.688 453.412 237.427 452.994 237.049L459.704 229.635ZM475.667 353.5C475.667 377.34 456.34 396.667 432.5 396.667V406.667C461.863 406.667 485.667 382.863 485.667 353.5H475.667ZM432.5 310.333C456.34 310.333 475.667 329.66 475.667 353.5H485.667C485.667 324.137 461.863 300.333 432.5 300.333V310.333ZM389.333 353.5C389.333 329.66 408.66 310.333 432.5 310.333V300.333C403.137 300.333 379.333 324.137 379.333 353.5H389.333ZM432.5 396.667C408.66 396.667 389.333 377.34 389.333 353.5H379.333C379.333 382.863 403.137 406.667 432.5 406.667V396.667Z" fill="white"/>
<rect x="29" y="229" width="310" height="219" rx="10" fill="#0C0C0C"/>
<rect x="29" y="229" width="310" height="219" rx="10" fill="#0C0C0C"/>
<rect x="29" y="229" width="310" height="219" rx="10" fill="#0C0C0C"/>
<rect x="29" y="229" width="310" height="219" rx="10" fill="#0C0C0C"/>
<rect x="29" y="229" width="310" height="219" rx="10" fill="#0C0C0C"/>
<rect x="29" y="229" width="310" height="219" rx="10" fill="#0C0C0C"/>
<rect x="41" y="241" width="285" height="179" fill="white"/>
<path d="M168.238 355.032L165.628 356.512H165.628L168.238 355.032ZM181.248 382.814L179.898 385.493L179.898 385.493L181.248 382.814ZM184.846 382.814L186.196 385.493L186.196 385.493L184.846 382.814ZM197.856 355.032L195.247 353.552V353.552L197.856 355.032ZM192.199 379.111L193.548 381.79L192.199 379.111ZM193.151 378.465L190.596 376.892L193.151 378.465ZM173.895 379.111L175.245 376.431L173.895 379.111ZM172.943 378.465L170.389 380.039L172.943 378.465ZM166.983 353.345L168.561 350.793L166.983 353.345ZM167.699 354.081L165.089 355.561L167.699 354.081ZM167.418 353.651L169.579 351.57L167.418 353.651ZM199.111 353.345L197.533 350.793L199.111 353.345ZM198.395 354.081L195.786 352.601L198.395 354.081ZM198.676 353.651L200.837 355.732L198.676 353.651ZM210.804 326.918C210.804 337.023 205.494 345.872 197.533 350.793L200.688 355.897C210.355 349.921 216.804 339.175 216.804 326.918H210.804ZM183.047 298.935C198.356 298.935 210.804 311.443 210.804 326.918H216.804C216.804 308.171 201.711 292.935 183.047 292.935V298.935ZM155.29 326.918C155.29 311.443 167.738 298.935 183.047 298.935V292.935C164.383 292.935 149.29 308.171 149.29 326.918H155.29ZM168.561 350.793C160.6 345.872 155.29 337.023 155.29 326.918H149.29C149.29 339.175 155.739 349.921 165.406 355.897L168.561 350.793ZM170.847 353.552L170.308 352.601L165.089 355.561L165.628 356.512L170.847 353.552ZM175.795 372.301C175.795 365.728 174.09 359.268 170.847 353.552L165.628 356.512C168.359 361.326 169.795 366.766 169.795 372.301H175.795ZM175.795 377.325V372.301H169.795V377.325H175.795ZM182.597 380.135L175.245 376.431L172.546 381.79L179.898 385.493L182.597 380.135ZM183.497 380.135C183.214 380.277 182.88 380.277 182.597 380.135L179.898 385.493C181.879 386.491 184.215 386.491 186.196 385.493L183.497 380.135ZM190.849 376.431L183.497 380.135L186.196 385.493L193.548 381.79L190.849 376.431ZM190.299 372.301V377.325H196.299V372.301H190.299ZM195.247 353.552C192.004 359.268 190.299 365.728 190.299 372.301H196.299C196.299 366.766 197.735 361.326 200.466 356.512L195.247 353.552ZM195.786 352.601L195.247 353.552L200.466 356.512L201.005 355.561L195.786 352.601ZM193.548 381.79C193.761 381.683 194.125 381.504 194.437 381.304C194.808 381.066 195.311 380.679 195.705 380.039L190.596 376.892C190.711 376.706 190.842 376.554 190.967 376.437C191.083 376.329 191.176 376.268 191.203 376.251C191.227 376.235 191.22 376.241 191.15 376.278C191.079 376.316 190.991 376.36 190.849 376.431L193.548 381.79ZM190.299 377.325C190.299 377.483 190.299 377.582 190.298 377.662C190.296 377.742 190.294 377.75 190.297 377.721C190.3 377.69 190.313 377.579 190.357 377.427C190.405 377.263 190.482 377.078 190.596 376.892L195.705 380.039C196.099 379.398 196.22 378.775 196.265 378.337C196.303 377.968 196.299 377.563 196.299 377.325H190.299ZM169.795 377.325C169.795 377.563 169.791 377.968 169.829 378.337C169.874 378.775 169.995 379.398 170.389 380.039L175.498 376.892C175.612 377.078 175.689 377.263 175.737 377.427C175.781 377.579 175.794 377.69 175.798 377.721C175.8 377.75 175.798 377.742 175.797 377.662C175.795 377.582 175.795 377.483 175.795 377.325H169.795ZM175.245 376.431C175.103 376.36 175.015 376.316 174.944 376.278C174.874 376.241 174.868 376.235 174.892 376.251C174.918 376.268 175.011 376.329 175.127 376.437C175.252 376.554 175.383 376.706 175.498 376.892L170.389 380.039C170.783 380.679 171.286 381.066 171.657 381.304C171.969 381.504 172.333 381.683 172.546 381.79L175.245 376.431ZM165.406 355.897C165.467 355.935 165.505 355.958 165.536 355.978C165.566 355.997 165.57 355.999 165.56 355.993C165.537 355.977 165.408 355.888 165.258 355.732L169.579 351.57C169.167 351.141 168.653 350.85 168.561 350.793L165.406 355.897ZM170.308 352.601C170.255 352.507 169.99 351.996 169.579 351.57L165.258 355.732C165.113 355.582 165.029 355.452 165.009 355.42C165 355.407 165.001 355.408 165.018 355.436C165.035 355.465 165.055 355.501 165.089 355.561L170.308 352.601ZM197.533 350.793C197.441 350.85 196.927 351.141 196.515 351.57L200.837 355.732C200.686 355.888 200.557 355.977 200.534 355.993C200.524 355.999 200.528 355.997 200.558 355.978C200.589 355.958 200.627 355.935 200.688 355.897L197.533 350.793ZM201.005 355.561C201.039 355.501 201.059 355.465 201.076 355.436C201.093 355.408 201.094 355.407 201.086 355.42C201.065 355.452 200.981 355.582 200.837 355.732L196.515 351.57C196.104 351.996 195.839 352.507 195.786 352.601L201.005 355.561Z" fill="#989CF8"/>
<path d="M198.355 357.806V357.806C197.178 358.568 196.59 358.949 196.031 359.273C187.971 363.941 178.029 363.941 169.969 359.273C169.41 358.949 168.822 358.568 167.645 357.806V357.806" stroke="#989CF8" stroke-width="6"/>
<path d="M218 290.672L235 275.672" stroke="#9C98F0"/>
<line y1="-0.5" x2="22.6716" y2="-0.5" transform="matrix(-0.749838 -0.661622 -0.661622 0.749838 151 289.672)" stroke="#9C98F0"/>
<path d="M182.681 276.672L182.669 254" stroke="#9C98F0"/>
<line x1="141.669" y1="316.276" x2="118.998" y2="316.172" stroke="#9C98F0"/>
<line x1="246.669" y1="316.276" x2="223.998" y2="316.172" stroke="#9C98F0"/>
<path d="M3 432H364V446C364 450.418 360.418 454 356 454H11C6.58172 454 3 450.418 3 446V432Z" fill="#404040"/>
<defs>
<linearGradient id="paint0_linear_3_32" x1="426.5" y1="45" x2="151.5" y2="496.5" gradientUnits="userSpaceOnUse">
<stop stop-color="#FA7178"/>
<stop offset="1" stop-color="#5990FA"/>
</linearGradient>
</defs>
</svg>
