<svg width="49" height="49" viewBox="0 0 49 49" fill="none" xmlns="http://www.w3.org/2000/svg">
<path fill-rule="evenodd" clip-rule="evenodd" d="M7.00368 11.087C6.125 11.9657 6.125 13.3799 6.125 16.2083V32.7917C6.125 35.6201 6.125 37.0343 7.00368 37.913C7.88236 38.7917 9.29657 38.7917 12.125 38.7917H36.875C39.7034 38.7917 41.1176 38.7917 41.9963 37.913C42.875 37.0343 42.875 35.6201 42.875 32.7917V16.2083C42.875 13.3799 42.875 11.9657 41.9963 11.087C41.1176 10.2083 39.7034 10.2083 36.875 10.2083H12.125C9.29657 10.2083 7.88236 10.2083 7.00368 11.087ZM12.8047 17.543C12.3452 17.2366 11.7243 17.3608 11.4179 17.8203C11.1116 18.2798 11.2358 18.9007 11.6953 19.2071L23.3906 27.0039C24.0624 27.4518 24.9376 27.4518 25.6094 27.0039L37.3047 19.2071C37.7642 18.9007 37.8884 18.2798 37.5821 17.8203C37.2757 17.3608 36.6548 17.2366 36.1953 17.543L24.5 25.3398L12.8047 17.543Z" fill="white"/>
</svg>
