<svg width="100%" height="100%" viewBox="0 0 534 510" fill="none" xmlns="http://www.w3.org/2000/svg">
<ellipse cx="261" cy="246.5" rx="225" ry="221.5" fill="url(#paint0_linear_5_9)"/>
<rect x="63.8182" y="42" width="122.182" height="10" rx="5" fill="#1B3667"/>
<rect x="63.8182" y="86" width="79.4182" height="10" rx="5" fill="#1B3667"/>
<rect x="68.1818" y="108" width="90.7636" height="10" rx="5" fill="#1B3667"/>
<rect x="139.745" y="64" width="24.4364" height="10" rx="5" fill="#1B3667"/>
<rect x="42" y="64" width="87.2727" height="10" rx="5" fill="#1B3667"/>
<rect width="122.182" height="10" rx="5" transform="matrix(-1 0 0 1 498.182 361)" fill="#1B3667"/>
<rect width="79.4182" height="10" rx="5" transform="matrix(-1 0 0 1 501.418 403)" fill="#1B3667"/>
<rect width="90.7636" height="10" rx="5" transform="matrix(-1 0 0 1 485.764 425)" fill="#1B3667"/>
<rect width="24.4364" height="10" rx="5" transform="matrix(-1 0 0 1 422.255 383)" fill="#1B3667"/>
<rect width="38" height="10" rx="5" transform="matrix(-1 0 0 1 517 383)" fill="#1B3667"/>
<g clip-path="url(#clip0_5_9)">
<rect x="16" y="150" width="347" height="241" rx="18" fill="#A6D8F4"/>
<rect width="6.89852" height="212.574" transform="matrix(0.603638 -0.797258 0.811719 0.584048 200.536 233.23)" fill="#7FC0E4"/>
<rect width="6.89852" height="212.574" transform="matrix(0.603638 -0.797258 0.811719 0.584048 200.536 233.23)" fill="#7FC0E4"/>
<rect width="6.89354" height="212.725" transform="matrix(-0.579541 -0.814943 -0.828539 0.559932 170.415 232.372)" fill="#7FC0E4"/>
<rect width="6.89354" height="212.725" transform="matrix(-0.579541 -0.814943 -0.828539 0.559932 170.415 232.372)" fill="#7FC0E4"/>
<path d="M177.075 286.891C178.822 288.15 181.178 288.15 182.925 286.891L415.993 118.805C419.929 115.967 417.921 109.75 413.068 109.75H-53.0683C-57.9209 109.75 -59.9288 115.967 -55.993 118.805L177.075 286.891Z" fill="#7FC0E4"/>
<path d="M184.146 239.494C180.624 239.494 177.499 239.011 174.771 238.045C172.055 237.091 169.766 235.682 167.902 233.818C166.038 231.966 164.624 229.693 163.658 227C162.692 224.307 162.209 221.233 162.209 217.778C162.209 214.415 162.697 211.392 163.675 208.71C164.652 206.028 166.072 203.744 167.936 201.858C169.811 199.96 172.089 198.511 174.771 197.511C177.453 196.511 180.499 196.011 183.908 196.011C187.169 196.011 190.044 196.523 192.533 197.545C195.021 198.568 197.112 199.972 198.805 201.756C200.51 203.54 201.794 205.585 202.658 207.892C203.521 210.199 203.953 212.636 203.953 215.205C203.953 217 203.839 218.756 203.612 220.472C203.385 222.176 202.964 223.722 202.351 225.108C201.749 226.483 200.874 227.585 199.726 228.415C198.589 229.233 197.112 229.659 195.294 229.693C194.328 229.727 193.391 229.614 192.482 229.352C191.572 229.091 190.8 228.67 190.163 228.091C189.527 227.5 189.141 226.75 189.004 225.841H188.8C188.527 226.511 188.072 227.136 187.436 227.716C186.8 228.284 185.987 228.739 184.999 229.08C184.021 229.409 182.885 229.545 181.589 229.489C180.158 229.432 178.868 229.108 177.72 228.517C176.572 227.926 175.589 227.108 174.771 226.062C173.964 225.017 173.345 223.778 172.913 222.347C172.482 220.915 172.266 219.324 172.266 217.574C172.266 215.892 172.51 214.386 172.999 213.057C173.487 211.716 174.152 210.562 174.993 209.597C175.845 208.619 176.822 207.847 177.925 207.278C179.027 206.71 180.192 206.352 181.419 206.205C182.612 206.068 183.709 206.102 184.709 206.307C185.709 206.511 186.538 206.824 187.197 207.244C187.868 207.665 188.288 208.125 188.459 208.625H188.68V206.716H192.874V222.534C192.874 223.432 193.107 224.193 193.572 224.818C194.05 225.443 194.726 225.756 195.601 225.756C196.635 225.756 197.442 225.375 198.021 224.614C198.612 223.852 199.027 222.682 199.266 221.102C199.516 219.523 199.641 217.5 199.641 215.034C199.641 213.307 199.408 211.682 198.942 210.159C198.487 208.625 197.811 207.239 196.913 206C196.027 204.75 194.936 203.676 193.641 202.778C192.345 201.881 190.868 201.187 189.209 200.699C187.561 200.21 185.737 199.966 183.737 199.966C181.021 199.966 178.607 200.386 176.493 201.227C174.379 202.057 172.595 203.256 171.141 204.824C169.697 206.392 168.601 208.273 167.851 210.466C167.112 212.648 166.743 215.097 166.743 217.812C166.743 220.642 167.124 223.153 167.885 225.347C168.646 227.528 169.771 229.369 171.26 230.869C172.749 232.369 174.589 233.506 176.783 234.278C178.976 235.063 181.504 235.455 184.368 235.455C185.641 235.455 186.891 235.341 188.118 235.114C189.345 234.898 190.436 234.648 191.391 234.364C192.357 234.091 193.078 233.869 193.555 233.699L194.749 237.432C194.044 237.761 193.107 238.085 191.936 238.403C190.777 238.722 189.516 238.983 188.152 239.188C186.8 239.392 185.464 239.494 184.146 239.494ZM182.578 225.312C184.055 225.312 185.243 225.017 186.141 224.426C187.05 223.835 187.703 222.955 188.101 221.784C188.51 220.602 188.714 219.125 188.714 217.352C188.703 215.625 188.482 214.25 188.05 213.227C187.629 212.193 186.97 211.455 186.072 211.011C185.186 210.557 184.044 210.33 182.646 210.33C181.362 210.33 180.266 210.642 179.357 211.267C178.459 211.892 177.771 212.739 177.294 213.807C176.828 214.875 176.589 216.062 176.578 217.369C176.589 218.744 176.783 220.04 177.158 221.256C177.544 222.46 178.169 223.438 179.033 224.188C179.908 224.938 181.089 225.312 182.578 225.312Z" fill="white"/>
</g>
<rect x="354" y="144" width="123" height="250" rx="8" fill="#1C1C1C"/>
<rect x="357" y="152" width="117" height="235" rx="8" fill="white"/>
<path d="M394 147H442V153C442 157.418 438.418 161 434 161H402C397.582 161 394 157.418 394 153V147Z" fill="#1C1C1C"/>
<circle cx="416.5" cy="261.5" r="39.5" stroke="black" stroke-width="2"/>
<path d="M427.227 265.542C427.009 265.273 426.739 265.058 426.436 264.91C426.133 264.762 425.804 264.686 425.47 264.686C425.137 264.686 424.808 264.762 424.505 264.91C424.202 265.058 423.932 265.273 423.714 265.542C422.894 266.406 422.073 267.28 421.263 268.165C421.186 268.276 421.073 268.351 420.946 268.374C420.82 268.398 420.689 268.369 420.582 268.293C420.052 267.984 419.482 267.739 418.971 267.397C416.629 265.78 414.554 263.762 412.827 261.426C411.926 260.293 411.181 259.029 410.616 257.672C410.554 257.559 410.534 257.427 410.558 257.299C410.582 257.171 410.649 257.057 410.746 256.979C411.566 256.126 412.367 255.262 413.177 254.387C413.442 254.153 413.655 253.86 413.801 253.528C413.947 253.196 414.023 252.834 414.023 252.468C414.023 252.102 413.947 251.74 413.801 251.408C413.655 251.076 413.442 250.783 413.177 250.549L411.246 248.49C410.586 247.787 409.925 247.072 409.245 246.358C409.025 246.092 408.755 245.879 408.452 245.734C408.149 245.588 407.821 245.513 407.489 245.513C407.157 245.513 406.828 245.588 406.525 245.734C406.223 245.879 405.952 246.092 405.733 246.358C404.902 247.221 404.112 248.117 403.261 248.97C402.512 249.723 402.064 250.754 402.01 251.849C401.939 253.646 402.24 255.437 402.891 257.096C404.139 260.544 405.936 263.737 408.204 266.534C411.189 270.353 414.904 273.451 419.101 275.619C420.966 276.66 423.007 277.294 425.105 277.485C425.808 277.569 426.519 277.474 427.18 277.207C427.842 276.94 428.434 276.509 428.908 275.95C429.608 275.107 430.399 274.339 431.149 273.54C431.409 273.304 431.617 273.012 431.76 272.682C431.903 272.353 431.977 271.994 431.977 271.631C431.977 271.268 431.903 270.909 431.76 270.579C431.617 270.25 431.409 269.957 431.149 269.722C429.855 268.329 428.547 266.935 427.227 265.542Z" fill="#222222"/>
<path d="M432.42 259.453C429.814 252.967 424.951 247.81 418.851 245.067C418.605 244.97 418.334 244.979 418.094 245.092C417.855 245.206 417.666 245.415 417.57 245.675C417.518 245.805 417.49 245.945 417.489 246.087C417.488 246.228 417.513 246.369 417.564 246.5C417.614 246.631 417.688 246.75 417.782 246.85C417.876 246.95 417.988 247.029 418.111 247.083C423.733 249.614 428.216 254.369 430.619 260.349C430.726 260.602 430.922 260.801 431.165 260.903C431.408 261.004 431.679 261.001 431.92 260.892C432.043 260.835 432.154 260.752 432.246 260.647C432.338 260.543 432.41 260.42 432.457 260.286C432.503 260.152 432.524 260.009 432.518 259.865C432.512 259.722 432.478 259.582 432.42 259.453Z" fill="#222222"/>
<path d="M417.59 252.873C420.998 254.403 423.717 257.281 425.175 260.903C425.253 261.082 425.375 261.234 425.529 261.343C425.682 261.452 425.861 261.514 426.046 261.522C426.181 261.52 426.314 261.488 426.436 261.426C426.666 261.305 426.844 261.096 426.934 260.84C427.023 260.584 427.017 260.301 426.916 260.05C425.264 255.938 422.179 252.67 418.311 250.932C418.073 250.842 417.811 250.852 417.579 250.958C417.347 251.065 417.162 251.262 417.06 251.508C416.966 251.765 416.969 252.05 417.067 252.304C417.166 252.559 417.354 252.763 417.59 252.873Z" fill="#222222"/>
<defs>
<linearGradient id="paint0_linear_5_9" x1="397.5" y1="43" x2="160" y2="398.5" gradientUnits="userSpaceOnUse">
<stop stop-color="#B3D9FF"/>
<stop offset="1" stop-color="#4150DD"/>
</linearGradient>
<clipPath id="clip0_5_9">
<rect x="16" y="144" width="328" height="208" rx="17" fill="white"/>
</clipPath>
</defs>
</svg>
