<svg width="100%" height="100%" viewBox="0 0 552 532" fill="none" xmlns="http://www.w3.org/2000/svg">
<ellipse cx="288" cy="266.5" rx="225" ry="221.5" fill="url(#paint0_linear_401_9)"/>
<rect x="56.8181" y="134" width="122.182" height="10" rx="5" fill="#1B3667"/>
<rect x="56.8181" y="178" width="79.4182" height="10" rx="5" fill="#1B3667"/>
<rect x="61.1819" y="200" width="90.7636" height="10" rx="5" fill="#1B3667"/>
<rect x="132.745" y="156" width="24.4364" height="10" rx="5" fill="#1B3667"/>
<rect x="35" y="156" width="87.2727" height="10" rx="5" fill="#1B3667"/>
<path fill-rule="evenodd" clip-rule="evenodd" d="M403.729 47.6463C405.919 50.5096 405.998 54.5676 406.157 62.6838C406.46 78.1244 406.611 85.8447 411.086 89.0573C411.98 89.6994 412.966 90.2036 414.01 90.553C419.234 92.3012 425.582 87.9053 438.279 79.1135C444.953 74.4923 448.29 72.1817 451.893 72.2816C452.643 72.3024 453.389 72.3998 454.119 72.5724C457.627 73.4017 460.258 76.4921 465.52 82.6729L476.612 95.7001C481.874 101.881 484.505 104.971 484.764 108.567C484.818 109.315 484.796 110.067 484.697 110.81C484.22 114.384 481.407 117.309 475.781 123.161C465.076 134.293 459.724 139.859 460.617 145.295C460.795 146.381 461.135 147.435 461.627 148.42C464.084 153.35 471.682 154.731 486.877 157.492C494.864 158.943 498.858 159.669 501.335 162.288C501.85 162.833 502.309 163.429 502.703 164.067C504.597 167.134 504.273 171.18 503.623 179.272L502.254 196.327C501.605 204.418 501.28 208.463 498.922 211.188C498.43 211.756 497.882 212.272 497.286 212.728C494.423 214.917 490.365 214.997 482.25 215.156C466.813 215.458 459.094 215.609 455.881 220.082C455.238 220.978 454.733 221.965 454.383 223.011C452.637 228.234 457.032 234.58 465.821 247.274C470.441 253.946 472.751 257.282 472.652 260.884C472.631 261.635 472.534 262.382 472.361 263.114C471.531 266.621 468.441 269.251 462.262 274.512L449.233 285.605C443.052 290.867 439.962 293.498 436.367 293.758C435.618 293.812 434.866 293.789 434.123 293.69C430.55 293.214 427.624 290.4 421.773 284.774L421.773 284.774C410.641 274.07 405.075 268.717 399.639 269.61C398.553 269.788 397.499 270.129 396.514 270.62C391.584 273.078 390.203 280.676 387.441 295.873C385.989 303.862 385.263 307.857 382.644 310.335C382.1 310.849 381.504 311.307 380.867 311.701C377.799 313.596 373.753 313.271 365.659 312.622L348.607 311.253C340.515 310.603 336.469 310.279 333.744 307.919C333.176 307.429 332.661 306.881 332.205 306.285C330.015 303.422 329.936 299.364 329.777 291.247C329.475 275.806 329.323 268.086 324.848 264.873C323.954 264.231 322.968 263.727 321.925 263.378C316.7 261.629 310.352 266.025 297.655 274.818C290.98 279.439 287.643 281.75 284.04 281.65C283.29 281.629 282.545 281.532 281.815 281.359C278.306 280.53 275.675 277.439 270.412 271.258L259.321 258.231C254.059 252.05 251.428 248.96 251.169 245.364C251.115 244.616 251.137 243.865 251.236 243.121C251.713 239.548 254.526 236.622 260.153 230.771C270.857 219.638 276.209 214.072 275.317 208.636C275.138 207.55 274.798 206.497 274.307 205.511C271.849 200.581 264.252 199.2 249.057 196.439C241.07 194.988 237.077 194.262 234.599 191.644C234.084 191.099 233.625 190.502 233.231 189.864C231.337 186.797 231.662 182.751 232.311 174.66L233.68 157.607C234.329 149.514 234.654 145.467 237.014 142.741C237.504 142.175 238.052 141.66 238.647 141.205C241.51 139.014 245.569 138.934 253.687 138.775C269.13 138.473 276.852 138.322 280.065 133.845C280.706 132.952 281.21 131.967 281.559 130.925C283.308 125.7 278.911 119.35 270.117 106.65L270.117 106.65C265.494 99.9737 263.183 96.6357 263.284 93.0312C263.304 92.2827 263.402 91.5382 263.574 90.8095C264.403 87.3001 267.494 84.6681 273.677 79.4042L286.702 68.3147C292.883 63.0521 295.973 60.4207 299.569 60.1617C300.317 60.1078 301.069 60.1305 301.812 60.2296C305.386 60.7056 308.312 63.5193 314.164 69.1467C325.295 79.8502 330.86 85.202 336.295 84.3105C337.383 84.1321 338.438 83.7912 339.424 83.2992C344.353 80.8411 345.733 73.2453 348.494 58.0537L348.494 58.0537C349.945 50.0685 350.67 46.076 353.288 43.5988C353.834 43.0826 354.431 42.6236 355.07 42.229C358.136 40.3356 362.181 40.6602 370.271 41.3095L387.327 42.6785C395.419 43.328 399.465 43.6527 402.19 46.0118C402.758 46.5028 403.273 47.0504 403.729 47.6463ZM363.634 230.954C393.451 233.348 419.563 211.116 421.956 181.299C424.349 151.482 402.117 125.37 372.3 122.977C342.483 120.584 316.372 142.815 313.978 172.632C311.585 202.45 333.817 228.561 363.634 230.954Z" fill="white"/>
<path fill-rule="evenodd" clip-rule="evenodd" d="M251.811 261.398C253.135 263.786 253.196 266.891 253.318 273.102C253.548 284.878 253.663 290.766 256.407 293.813C258.218 295.824 260.706 297.096 263.397 297.388C267.473 297.829 272.314 294.477 281.998 287.771C287.105 284.235 289.658 282.467 292.37 282.143C294.191 281.925 296.038 282.167 297.743 282.845C300.28 283.855 302.294 286.22 306.32 290.949L316.223 302.581C320.25 307.311 322.264 309.675 322.856 312.341C323.254 314.132 323.198 315.994 322.692 317.758C321.94 320.383 319.787 322.622 315.481 327.099C307.317 335.589 303.235 339.834 303.021 343.929C302.88 346.631 303.739 349.29 305.435 351.399C308.005 354.593 313.8 355.646 325.389 357.752C331.501 358.863 334.557 359.418 336.703 361.107C338.145 362.241 339.281 363.717 340.006 365.402C341.086 367.91 340.838 371.006 340.341 377.199L339.118 392.427C338.622 398.617 338.373 401.713 336.907 404.016C335.922 405.565 334.565 406.842 332.96 407.732C330.572 409.055 327.467 409.116 321.258 409.238L321.258 409.238C309.484 409.468 303.598 409.584 300.551 412.326C298.539 414.137 297.266 416.627 296.975 419.319C296.534 423.394 299.886 428.234 306.589 437.915C310.124 443.02 311.892 445.573 312.216 448.283C312.434 450.106 312.193 451.954 311.514 453.66C310.504 456.196 308.14 458.209 303.411 462.234L303.411 462.234L291.778 472.139C287.049 476.166 284.684 478.179 282.018 478.771C280.227 479.169 278.365 479.113 276.601 478.607C273.976 477.855 271.738 475.702 267.26 471.397C258.77 463.233 254.525 459.151 250.431 458.937C247.729 458.795 245.069 459.655 242.961 461.351C239.766 463.921 238.713 469.716 236.607 481.306C235.496 487.42 234.94 490.477 233.251 492.624C232.118 494.065 230.642 495.2 228.958 495.926C226.449 497.006 223.352 496.758 217.159 496.261L201.933 495.039C195.741 494.542 192.645 494.293 190.342 492.827C188.794 491.842 187.517 490.486 186.628 488.881C185.303 486.493 185.243 483.387 185.121 477.177C184.89 465.4 184.775 459.512 182.031 456.465C180.22 454.455 177.732 453.182 175.042 452.89C170.966 452.449 166.124 455.802 156.44 462.507C151.333 466.044 148.779 467.812 146.068 468.136C144.246 468.354 142.399 468.112 140.695 467.434C138.158 466.424 136.144 464.059 132.117 459.329L122.214 447.698C118.187 442.968 116.174 440.603 115.582 437.937C115.184 436.147 115.24 434.285 115.745 432.521C116.498 429.896 118.651 427.657 122.956 423.179C131.12 414.689 135.203 410.444 135.417 406.35C135.558 403.648 134.699 400.988 133.002 398.88C130.432 395.685 124.638 394.632 113.049 392.527C106.938 391.416 103.882 390.861 101.735 389.172C100.293 388.038 99.1579 386.561 98.4324 384.876C97.3524 382.368 97.6008 379.272 98.0978 373.08L99.3199 357.855C99.8169 351.662 100.065 348.565 101.532 346.261C102.517 344.714 103.873 343.438 105.477 342.548C107.865 341.223 110.971 341.163 117.183 341.041L117.183 341.041C128.962 340.81 134.852 340.695 137.899 337.95C139.908 336.14 141.18 333.653 141.472 330.964C141.914 326.887 138.561 322.044 131.853 312.357C128.316 307.248 126.547 304.694 126.223 301.981C126.006 300.161 126.247 298.315 126.925 296.612C127.935 294.073 130.3 292.059 135.032 288.031L146.661 278.13C151.391 274.103 153.756 272.089 156.422 271.497C158.213 271.099 160.074 271.155 161.838 271.661C164.463 272.413 166.702 274.566 171.181 278.872C179.67 287.036 183.915 291.117 188.008 291.332C190.711 291.474 193.372 290.614 195.481 288.917C198.674 286.347 199.727 280.554 201.832 268.968L201.832 268.968C202.943 262.858 203.498 259.803 205.186 257.657C206.32 256.214 207.797 255.078 209.483 254.352C211.991 253.273 215.086 253.521 221.277 254.018L236.505 255.24C242.697 255.737 245.793 255.986 248.097 257.452C249.645 258.437 250.921 259.793 251.811 261.398ZM215.35 423.344C241.973 425.48 265.287 405.631 267.423 379.008C269.56 352.386 249.711 329.072 223.088 326.935C196.466 324.798 173.152 344.648 171.015 371.27C168.878 397.893 188.728 421.207 215.35 423.344Z" fill="white"/>
<defs>
<linearGradient id="paint0_linear_401_9" x1="426.5" y1="45" x2="151.5" y2="496.5" gradientUnits="userSpaceOnUse">
<stop stop-color="#FF5EF9"/>
<stop offset="1" stop-color="#1464FF"/>
</linearGradient>
</defs>
</svg>
